<?xml version="1.0" encoding="UTF-8"?><svg xmlns="http://www.w3.org/2000/svg" viewBox="0 0 512 192"><defs><style>.cls-1{fill:#054ada;}.cls-2{fill:#fff;}.cls-3{fill:#f80;}</style></defs><g id="background"><rect class="cls-2" y="1.5" width="512" height="192"/></g><g id="Logo"><g><path class="cls-3" d="M55.7,79.7h40.79v11.46l-15.34,1.18c-24.78,1.85-32.53,8.43-32.53,26.8v3.71c0,13.49,9.44,21.58,23.94,21.58,11.46,0,18.04-2.7,26.13-10.96h1.35v8.76h16.35V61.84H55.7v17.87Zm40.79,38.77c-5.06,5.06-12.64,8.43-18.88,8.43-6.74,0-9.61-2.53-9.44-8.09,.17-7.75,3.03-9.61,16.01-10.79l12.31-1.18v11.63Z"/><path class="cls-1" d="M438.85,94.2l-12.14-1.18c-6.74-.67-8.43-2.36-8.43-7.75,0-6.07,2.36-7.59,11.8-7.59,8.43,0,10.79,1.35,11.97,7.08h18.88c-.51-19.22-6.41-24.1-29.84-24.1-25.62,0-32.03,4.89-32.03,24.61,0,18.04,4.72,22.92,23.77,24.78l9.95,1.01c8.93,.84,11.13,2.53,11.13,7.92,0,6.57-2.7,8.26-13.65,8.26-9.61,0-12.14-1.52-12.64-7.75h-19.05c.51,19.89,6.57,24.95,30.85,24.95,26.97,0,33.71-5.4,33.71-27.31,0-16.35-4.89-21.07-24.27-22.92Z"/><path class="cls-1" d="M337.71,95.72c0-25.96-8.93-35.06-34.56-35.06s-35.23,11.8-35.23,41.13c0,32.03,8.77,42.65,37.08,42.65,20.4,0,28.99-6.24,31.86-23.77h-19.38c-2.19,5.4-4.55,6.57-12.81,6.57-12.47,0-15.68-3.54-16.35-18.54h48.04c.84-4.38,1.35-9.61,1.35-12.98Zm-49.22-2.87c.17-11.29,4.72-15.51,15.51-15.51s14.5,4.21,14.83,15.51h-30.34Z"/><polygon class="cls-1" points="182.8 61.84 151.28 61.84 151.28 37.73 131.22 37.73 131.22 142.24 151.28 142.24 151.28 79.87 179.93 79.87 179.93 142.24 199.99 142.24 199.99 78.19 182.8 78.19 182.8 61.84"/><path class="cls-1" d="M349,65.37v76.87h20.06v-63.21h24.1v-17.19h-24.1v-2.19c.17-4.72,1.35-6.07,5.22-6.07h21.91v-15.84h-23.6c-16.01,0-23.6,4.89-23.6,27.64Z"/><polygon class="cls-1" points="214.83 142.24 234.88 142.24 234.88 80.71 264.72 80.71 264.72 61.84 214.83 61.84 214.83 142.24"/></g></g></svg>