<?xml version="1.0" standalone="no"?>
<!DOCTYPE svg PUBLIC "-//W3C//DTD SVG 1.1//EN" "http://www.w3.org/Graphics/SVG/1.1/DTD/svg11.dtd">
<!--Generator: Xara Designer (www.xara.com), SVG filter version: 6.7.0.0-->
<svg fill="none" fill-rule="evenodd" stroke="black" stroke-width="0.501" stroke-linejoin="bevel" stroke-miterlimit="10" font-family="Times New Roman" font-size="16" style="font-variant-ligatures:none" xmlns:xlink="http://www.w3.org/1999/xlink" xmlns="http://www.w3.org/2000/svg" version="1.1" overflow="visible" width="192pt" height="192pt" viewBox="0 -192 192 192">
 <defs>
  <linearGradient id="LinearGradient" gradientUnits="userSpaceOnUse" x1="0" y1="0" x2="98.028" y2="0" gradientTransform="translate(42.409 54.448) rotate(-29.4439)">
   <stop offset="0" stop-color="#f4e700"/>
   <stop offset="1" stop-color="#ff5463"/>
  </linearGradient>
  <linearGradient id="LinearGradient_1" gradientUnits="userSpaceOnUse" x1="0" y1="0" x2="87.441" y2="0" gradientTransform="translate(4.651 115.586) rotate(30.1365)">
   <stop offset="0" stop-color="#43c78f"/>
   <stop offset="1" stop-color="#4fb4e5"/>
  </linearGradient>
  <linearGradient id="LinearGradient_2" gradientUnits="userSpaceOnUse" x1="0" y1="0" x2="93.03" y2="0" gradientTransform="translate(157.428 73.396) rotate(88.8612)">
   <stop offset="0" stop-color="#e27caa"/>
   <stop offset="0.145599991083145" stop-color="#d878a9"/>
   <stop offset="0.391499996185303" stop-color="#be6fa7"/>
   <stop offset="0.705099999904633" stop-color="#9360a3"/>
   <stop offset="1" stop-color="#654f9f"/>
  </linearGradient>
 </defs>
 <g id="Layer 1" transform="scale(1 -1)">
  <g id="Group" stroke-linejoin="miter" stroke-width="0.869" stroke="none">
   <path d="M 55.232,70.455 L 55.232,25.592 L 56.19,23.932 L 95.038,1.5 L 96.962,1.5 L 135.81,23.932 Z" marker-start="none" marker-end="none" fill="url(#LinearGradient)"/>
   <path d="M 94.087,144.393 L 55.232,166.822 L 53.316,166.822 L 14.461,144.393 L 13.5,142.727 L 13.5,97.863 Z" marker-start="none" marker-end="none" fill="url(#LinearGradient_1)"/>
   <g id="Group_1" fill="#949fb4">
    <path d="M 13.5,49.681 L 31.482,60.059 L 13.5,70.455 Z" marker-start="none" marker-end="none"/>
    <path d="M 13.5,73.766 L 31.482,84.162 L 13.5,94.548 Z" marker-start="none" marker-end="none"/>
    <path d="M 34.362,61.722 L 52.356,72.117 L 34.362,82.493 Z" marker-start="none" marker-end="none"/>
    <path d="M 34.362,85.821 L 52.356,96.204 L 34.362,106.587 Z" marker-start="none" marker-end="none"/>
    <path d="M 34.362,37.635 L 52.345,48.022 L 34.362,58.401 Z" marker-start="none" marker-end="none"/>
    <path d="M 96.962,190.908 L 96.962,170.149 L 114.946,180.526 Z" marker-start="none" marker-end="none"/>
    <path d="M 117.826,178.871 L 117.826,158.093 L 135.81,168.476 Z" marker-start="none" marker-end="none"/>
    <path d="M 96.962,166.822 L 96.962,146.054 L 114.946,156.441 Z" marker-start="none" marker-end="none"/>
    <path d="M 117.826,154.779 L 117.826,134.007 L 135.81,144.392 Z" marker-start="none" marker-end="none"/>
    <path d="M 76.093,178.871 L 76.093,158.093 L 94.087,168.476 Z" marker-start="none" marker-end="none"/>
    <path d="M 177.538,48.022 L 159.557,58.401 L 159.546,37.635 Z" marker-start="none" marker-end="none"/>
    <path d="M 156.674,35.97 L 138.688,46.366 L 138.688,25.592 Z" marker-start="none" marker-end="none"/>
    <path d="M 156.674,60.073 L 138.688,70.455 L 138.688,49.681 Z" marker-start="none" marker-end="none"/>
    <path d="M 135.81,48.022 L 117.826,58.401 L 117.826,37.635 Z" marker-start="none" marker-end="none"/>
    <path d="M 177.538,72.117 L 159.557,82.493 L 159.557,61.733 Z" marker-start="none" marker-end="none"/>
   </g>
   <path d="M 138.691,73.766 L 177.538,96.204 L 178.5,97.863 L 178.5,142.727 L 177.538,144.393 L 138.691,166.822 Z" marker-start="none" marker-end="none" fill="url(#LinearGradient_2)"/>
  </g>
 </g>
</svg>
