<svg xml:space="preserve" xmlns:xlink="http://www.w3.org/1999/xlink" xmlns="http://www.w3.org/2000/svg" version="1.1" viewBox="0 18.386450971922248 309.3372266129032 78.14241663066954" style="max-height: 500px" width="309.3372266129032" height="78.14241663066954">
  <defs/>
  <g transform="matrix(1.0 0.0 -0.0 -1.0 0.0 77.30605541)">
    <g id="logo" transform="matrix(1.0 0.0 0.0 1.0 -93.92833495 -226.72707767)">
      <g id="">
        <path fill-rule="nonzero" fill="#9E1712" d="M94.1083 247.8471 L94.1083 243.1071 118.1083 232.7871 118.1083 238.3071 100.7083 245.5071 118.1083 252.7671 118.1083 258.2271 94.1083 247.8471 Z"/>
        <path fill-rule="nonzero" fill="#9E1712" d="M120.9883 225.7271 L126.6283 225.7271 142.5283 269.7271 136.7083 269.7271 120.9883 225.7271 Z"/>
        <path fill-rule="nonzero" fill="#9E1712" d="M146.1283 252.7671 L163.5283 245.5071 146.1283 238.3071 146.1283 232.7871 170.1283 243.1071 170.1283 247.8471 146.1283 258.2271 146.1283 252.7671 Z"/>
      </g>
      <g id="">
        <path fill-rule="nonzero" fill="#000000" d="M215.0259 237.0731 C214.9259 241.8086 212.6459 245.2262 208.2659 246.5933 212.8259 248.3331 215.4659 252.3722 215.4659 257.6539 215.4659 265.1106 210.3059 269.8331 202.2059 269.8331 L183.0859 269.8331 183.0859 226.8331 190.0859 226.8331 190.0859 243.8331 202.0859 243.8331 C205.9859 243.8331 208.3859 240.6101 208.5659 235.7439 208.6259 231.2569 208.8059 228.2867 209.1059 226.8331 L215.9459 226.8331 C215.5259 228.138 215.2859 231.3693 215.1059 236.4025 L215.0259 237.0731 Z M190.0859 249.8331 L190.0859 263.8331 201.5459 263.8331 C206.0459 263.8331 208.7459 261.1861 208.7459 256.892 208.7459 252.5978 205.9259 249.8331 201.5459 249.8331 L190.0859 249.8331 Z"/>
        <path fill-rule="nonzero" fill="#000000" d="M251.9259 242.5331 C251.8659 247.1931 250.4259 250.8531 247.4859 253.7331 244.5459 256.6131 240.7659 258.0531 236.2059 258.0531 231.6459 258.0531 227.8659 256.6131 224.9259 253.7331 221.9259 250.8531 220.4259 247.1931 220.4259 242.7531 220.4259 238.3131 221.9259 234.6531 224.9259 231.7731 227.8659 228.8931 231.6459 227.4531 236.2059 227.4531 239.8659 227.4531 243.1059 228.5331 245.9259 230.6331 248.7459 232.7331 250.6059 235.3731 251.4459 238.6731 L245.2059 238.6731 C244.0659 235.0731 240.4059 232.4931 236.2659 232.4931 231.2259 232.4931 227.2659 235.8531 226.4859 240.8331 L251.7459 240.8331 C251.8659 241.4331 251.9259 242.0331 251.9259 242.6931 L251.9259 242.5331 Z M242.5659 250.8131 C244.3659 249.8531 245.5059 248.0531 246.0459 245.8331 L226.6659 245.8331 C227.2059 248.0531 228.3459 249.8531 230.0859 251.2331 231.8259 252.6131 233.8659 253.2731 236.2659 253.2731 238.6659 253.2731 240.7659 252.6131 242.5659 251.2331 L242.5659 250.8131 Z"/>
        <path fill-rule="nonzero" fill="#000000" d="M257.9059 269.8331 L257.9059 227.8331 271.5259 227.8331 C277.8259 227.8331 282.9259 229.7753 286.8859 233.7204 290.8459 237.6048 292.8259 242.6424 292.8259 248.8938 292.8259 255.0239 290.8459 260.0615 286.8859 264.0065 282.9259 267.8909 277.8259 269.8331 271.5259 269.8331 L257.9059 269.8331 Z M264.9059 233.8331 L264.9059 263.8331 271.9259 263.8331 C276.3059 263.8331 279.8459 262.4476 282.5459 259.7368 285.2459 256.9657 286.6259 253.3512 286.6259 248.9536 286.6259 244.4355 285.2459 240.8211 282.5459 238.05 279.8459 235.2187 276.3059 233.8331 271.9259 233.8331 L264.9059 233.8331 Z"/>
        <path fill-rule="nonzero" fill="#000000" d="M322.4859 253.0931 C319.7259 256.699 316.1259 258.3731 311.7459 258.3731 307.6059 258.3731 304.1259 256.888 301.4259 253.8636 298.6659 250.8392 297.2859 246.9957 297.2859 242.3331 297.2859 237.6705 298.6659 233.827 301.4259 230.8026 304.1259 227.7783 307.6059 226.2931 311.7459 226.2931 316.1259 226.2931 319.7259 227.9673 322.4859 231.3067 L322.4859 226.8331 329.4859 226.8331 329.4859 257.8331 322.4859 257.8331 322.4859 253.3596 322.4859 253.0931 Z M313.2459 232.6331 C310.5459 232.6331 308.2659 233.5931 306.5259 235.4531 304.7259 237.3131 303.8259 239.6531 303.8259 242.5931 303.8259 245.4731 304.7259 247.8731 306.5259 249.7331 308.2659 251.5931 310.5459 252.5531 313.2459 252.5531 316.0059 252.5531 318.2859 251.5931 320.0859 249.7331 321.8259 247.8731 322.7259 245.4731 322.7259 242.5931 322.7259 239.6531 321.8259 237.3131 320.0859 235.4531 318.2859 233.5931 316.0059 232.6331 313.2459 232.6331 Z"/>
        <path fill-rule="nonzero" fill="#000000" d="M345.6259 257.8331 L345.6259 265.4531 338.6259 265.4531 338.6259 257.8331 333.1659 257.8331 333.1659 251.8331 338.6259 251.8331 338.6259 226.8331 345.6259 226.8331 345.6259 251.8331 352.2859 251.8331 352.2859 257.8331 345.6259 257.8331 Z"/>
        <path fill-rule="nonzero" fill="#000000" d="M379.4259 253.0931 C376.6659 256.699 373.0659 258.3731 368.6859 258.3731 364.5459 258.3731 361.0659 256.888 358.3659 253.8636 355.6059 250.8392 354.2259 246.9957 354.2259 242.3331 354.2259 237.6705 355.6059 233.827 358.3659 230.8026 361.0659 227.7783 364.5459 226.2931 368.6859 226.2931 373.0659 226.2931 376.6659 227.9673 379.4259 231.3067 L379.4259 226.8331 386.4259 226.8331 386.4259 257.8331 379.4259 257.8331 379.4259 253.3596 379.4259 253.0931 Z M370.1859 232.6331 C367.4859 232.6331 365.2059 233.5931 363.4659 235.4531 361.6659 237.3131 360.7659 239.6531 360.7659 242.5931 360.7659 245.4731 361.6659 247.8731 363.4659 249.7331 365.2059 251.5931 367.4859 252.5531 370.1859 252.5531 372.9459 252.5531 375.2259 251.5931 377.0259 249.7331 378.7659 247.8731 379.6659 245.4731 379.6659 242.5931 379.6659 239.6531 378.7659 237.3131 377.0259 235.4531 375.2259 233.5931 372.9459 232.6331 370.1859 232.6331 Z"/>
      </g>
    </g>
  </g>
</svg>