<svg id="Layer_1" data-name="Layer 1" xmlns="http://www.w3.org/2000/svg" viewBox="0 0 536.28 139.29"><defs><style>.cls-1,.cls-2{fill:#2458a4;}.cls-1{fill-rule:evenodd;}</style></defs><title>SARC_Logo+slogan_blauw_CMYK</title><path class="cls-1" d="M101.62,86.67c0-6-2-7.16-27.76-8.27-48.14-2-55.67-3.32-55.67-31.6,0-27.61,15.14-28.94,55-28.94,44.82,0,55.67,1.7,55.67,32.93H99.63c0-10-.15-10.12-26.29-10.12-25.77,0-25.92.15-25.92,6.13,0,6.28,3.62,6.94,26.43,7.83,48,2,57,4.36,57,32,0,26.43-12.33,28.87-57.15,28.87-49,0-56.85-2.14-56.85-33.59H46.1c0,10.34.29,10.63,27.76,10.63s27.76-.15,27.76-5.91" transform="translate(-16.86 -17.86)"/><path class="cls-1" d="M331.76,63h46.88c6.13,0,8.93-2.36,8.93-9.6s-2.81-9.67-8.93-9.67H331.76Zm55.89-43.86c20.23,0,29.24,6.35,29.24,27.61,0,16.24-3.69,23.11-13.14,26.88,10.12,4.36,13.14,7,13.14,19.27v21.26H387.66v-17c0-4.13-2.29-9.6-9.6-9.6H331.84v26.58H302.6v-95Z" transform="translate(-16.86 -17.86)"/><path class="cls-1" d="M552.82,55.73H523.58c0-10.48-2.36-13.29-29.09-13.29-28.72,0-28.87.81-28.87,24.29S465.77,91,494.49,91c26.29,0,29.09-2,29.09-13.29h29.24c0,32.56-1.85,37.88-58.33,37.88-55.15,0-58.11-4.13-58.11-48.88,0-44.52,3-48.8,58.11-48.8,56,0,58.33,5.61,58.33,37.88" transform="translate(-16.86 -17.86)"/><path class="cls-1" d="M272.84,85.93a41.7,41.7,0,0,1-40.54-3.4,52.85,52.85,0,0,0-36.1-8.71l16.17-33.37H217l11.44,23.63a31.59,31.59,0,0,0,39.87,12.85L239.62,19.19H189.78l-47.18,95h34.19A28.66,28.66,0,0,1,202.63,98c17.06,0,23.41,16.24,53.09,16.24a67,67,0,0,0,28.13-6.28Z" transform="translate(-16.86 -17.86)"/><path class="cls-2" d="M540.52,152.24v.18a4,4,0,0,0,1.83,3.47,8.09,8.09,0,0,0,4.69,1.26,7.5,7.5,0,0,0,4.41-1.19,4.14,4.14,0,0,0,1.47-4.7,4.83,4.83,0,0,0-.53-1.08,4.16,4.16,0,0,0-.86-.9,11.4,11.4,0,0,0-1-.71,8.17,8.17,0,0,0-1.11-.57q-.7-.3-1.05-.43l-1-.36a13.49,13.49,0,0,1-2-.82.79.79,0,0,1-.06-1.48,2.59,2.59,0,0,1,1.4-.31,2.7,2.7,0,0,1,1.74.5,1.45,1.45,0,0,1,.62,1.13v.14h3.84v-.22a4.32,4.32,0,0,0-1.77-3.6,7.2,7.2,0,0,0-4.51-1.36,6.86,6.86,0,0,0-4.33,1.3,4.16,4.16,0,0,0-1.67,3.46,3.77,3.77,0,0,0,.37,1.67,4.56,4.56,0,0,0,.89,1.27,6.09,6.09,0,0,0,1.37,1,12.79,12.79,0,0,0,1.48.7l1.55.55a11.13,11.13,0,0,1,2,.85,1,1,0,0,1,.58.83.79.79,0,0,1-.46.67,3,3,0,0,1-1.49.27,3.5,3.5,0,0,1-1.92-.44,1.21,1.21,0,0,1-.68-1v-.1Zm-17.62,4.61h11.79v-3.8h-7.86v-2h6.46v-3.56h-6.46v-2.2h7.86v-3.82H522.9Zm-9.51-5.69a4.05,4.05,0,0,1-1.51,1.59,4.11,4.11,0,0,1-2.18.59,4.17,4.17,0,1,1,0-8.35,4.08,4.08,0,0,1,2.17.6,4.12,4.12,0,0,1,1.52,1.59l3.58-1.61a8.18,8.18,0,0,0-3-3.17,8.22,8.22,0,0,0-10,1.14,7.78,7.78,0,0,0,0,11.26,8.21,8.21,0,0,0,13-2.07Zm-21.93-9.67v15.36h3.94V141.49Zm-11.93,15.36,6.22-15.36h-4.29l-3.88,10.32-3.86-10.32h-4.29l6.2,15.36Zm-20.4-11.77q2.17,0,2.17,2.07a2.05,2.05,0,0,1-.53,1.46,2.13,2.13,0,0,1-1.63.57h-3.37v-4.1Zm-7.29-3.58v15.36h3.92v-4.12h2l2.91,4.12h4.71l-3.33-4.65a4.84,4.84,0,0,0,2.26-2.06,6.1,6.1,0,0,0,.77-3,5.7,5.7,0,0,0-1.47-4,5.55,5.55,0,0,0-4.28-1.58ZM433.6,156.85H445.4v-3.8h-7.86v-2H444v-3.56h-6.46v-2.2h7.86v-3.82H433.6Zm-18.9-4.61v.18a4,4,0,0,0,1.83,3.47,8.09,8.09,0,0,0,4.69,1.26,7.5,7.5,0,0,0,4.41-1.19,4.15,4.15,0,0,0,1.47-4.7,4.83,4.83,0,0,0-.53-1.08,4.16,4.16,0,0,0-.86-.9,11.38,11.38,0,0,0-1-.71,8.23,8.23,0,0,0-1.11-.57q-.7-.3-1.05-.43l-1-.36a13.58,13.58,0,0,1-2-.82.79.79,0,0,1-.06-1.48,2.59,2.59,0,0,1,1.4-.31,2.7,2.7,0,0,1,1.74.5,1.45,1.45,0,0,1,.62,1.13v.14h3.84v-.22a4.32,4.32,0,0,0-1.77-3.6,7.2,7.2,0,0,0-4.51-1.36,6.86,6.86,0,0,0-4.33,1.3,4.17,4.17,0,0,0-1.67,3.46,3.76,3.76,0,0,0,.38,1.67,4.56,4.56,0,0,0,.89,1.27,6.1,6.1,0,0,0,1.37,1,12.88,12.88,0,0,0,1.48.7l1.55.55a11.13,11.13,0,0,1,2,.85,1,1,0,0,1,.58.83.79.79,0,0,1-.46.67,3,3,0,0,1-1.49.27,3.5,3.5,0,0,1-1.92-.44,1.21,1.21,0,0,1-.68-1v-.1Zm-23.25-6.93a3.37,3.37,0,0,1,2.65,1,4.72,4.72,0,0,1,0,5.64,3.36,3.36,0,0,1-2.65,1.05h-2.89v-7.74Zm-6.83,11.54h7.13a7.34,7.34,0,0,0,4-1.05,6.42,6.42,0,0,0,2.47-2.77,9.68,9.68,0,0,0,0-7.7,6.49,6.49,0,0,0-2.47-2.78,7.3,7.3,0,0,0-4-1.06h-7.13Zm-17.07,0v-8.57l6.85,8.57h3.33V141.49H373.8v8.58l-6.85-8.58H363.6v15.36ZM351.41,151H348l1.69-4.51Zm-3.62-9.55-6.22,15.36h4.29l.85-2.24h6l.85,2.24h4.29l-6.2-15.36Zm-32.31,15.36h11.79v-3.8h-7.86v-2h6.46v-3.56h-6.46v-2.2h7.86v-3.82H315.48Zm-12.33-11.77q2.17,0,2.17,2.07a2.05,2.05,0,0,1-.53,1.46,2.13,2.13,0,0,1-1.63.57h-3.37v-4.1Zm-7.29-3.58v15.36h3.92v-4.12h2l2.91,4.12h4.71l-3.33-4.65a4.84,4.84,0,0,0,2.26-2.06,6.11,6.11,0,0,0,.77-3,5.7,5.7,0,0,0-1.47-4,5.55,5.55,0,0,0-4.28-1.58ZM283.68,151h-3.37l1.69-4.51Zm-3.62-9.55-6.22,15.36h4.29l.85-2.24h6l.85,2.24h4.29L284,141.49Zm-23.21,15.36,2.91-8.92,2.93,8.92h4.08l4.31-15.36h-4.21l-2.48,9.14-2.87-9.14H258l-2.87,9.16-2.48-9.16h-4.19l4.31,15.36ZM230.2,145.31H235v11.54h3.94V145.31h4.79v-3.82H230.2Zm-16.68,11.54h3.92v-5.26h6.28V148h-6.28v-2.72h7.48v-3.82h-11.4ZM195,149.17a4.17,4.17,0,1,1,1.22,3A4,4,0,0,1,195,149.17Zm-4,0a7.57,7.57,0,0,0,2.41,5.63,8.23,8.23,0,0,0,11.5,0,7.82,7.82,0,0,0,0-11.26,8.23,8.23,0,0,0-11.5,0A7.57,7.57,0,0,0,191.06,149.17Zm-18.17,3.07v.18a4,4,0,0,0,1.83,3.47,8.09,8.09,0,0,0,4.69,1.26,7.5,7.5,0,0,0,4.41-1.19,4.14,4.14,0,0,0,1.47-4.7,4.85,4.85,0,0,0-.53-1.08,4.15,4.15,0,0,0-.86-.9,11.53,11.53,0,0,0-1-.71,8.27,8.27,0,0,0-1.11-.57q-.7-.3-1.05-.43l-1-.36a13.51,13.51,0,0,1-2-.82.79.79,0,0,1-.06-1.48,2.59,2.59,0,0,1,1.4-.31,2.7,2.7,0,0,1,1.74.5,1.45,1.45,0,0,1,.62,1.13v.14h3.84v-.22a4.32,4.32,0,0,0-1.77-3.6A7.2,7.2,0,0,0,179,141.2a6.86,6.86,0,0,0-4.33,1.3A4.17,4.17,0,0,0,173,146a3.76,3.76,0,0,0,.37,1.67,4.53,4.53,0,0,0,.89,1.27,6.07,6.07,0,0,0,1.37,1,12.82,12.82,0,0,0,1.48.7l1.55.55a11.15,11.15,0,0,1,2,.85,1,1,0,0,1,.58.83.79.79,0,0,1-.46.67,3,3,0,0,1-1.49.27,3.5,3.5,0,0,1-1.92-.44,1.21,1.21,0,0,1-.68-1v-.1Zm-27.68,4.61H157v-3.8h-7.86v-2h6.46v-3.56h-6.46v-2.2H157v-3.82H145.2Zm-19.77,0v-7.23l3.19,6.64h2.58l3.19-6.64v7.23h3.92V141.49h-4l-4.45,9.71-4.43-9.71h-4v15.36Zm-14.75-15.36v15.36h3.94V141.49Zm-19.45,3.82H96v11.54H100V145.31h4.79v-3.82H91.23Zm-9.88-3.82v15.36h3.94V141.49ZM69,145.08q2.17,0,2.17,2.07a2.05,2.05,0,0,1-.53,1.46,2.13,2.13,0,0,1-1.63.57H65.65v-4.1Zm-7.29-3.58v15.36h3.92v-4.12h2l2.91,4.12h4.71L72,152.2a4.84,4.84,0,0,0,2.26-2.06,6.11,6.11,0,0,0,.77-3,5.7,5.7,0,0,0-1.47-4,5.55,5.55,0,0,0-4.28-1.58ZM49.54,151H46.18l1.69-4.51Zm-3.62-9.55L39.7,156.85H44l.85-2.24h6l.85,2.24H56l-6.2-15.36ZM21.11,156.85v-7.23l3.19,6.64h2.58l3.19-6.64v7.23H34V141.49H30l-4.45,9.71-4.43-9.71h-4v15.36Z" transform="translate(-16.86 -17.86)"/></svg>