<svg width="3486" height="1457" viewBox="0 0 3486 1457" fill="none" xmlns="http://www.w3.org/2000/svg">
<rect width="3485.38" height="1456.22" transform="translate(0.238281)" fill="white"/>
<path d="M850.96 806.162H957.92C966.095 806.162 972.908 800.159 974.27 792.82L995.39 676.745C1001.52 641.389 982.446 606.7 949.063 592.691L726.968 499.298C720.155 496.629 716.067 488.624 717.43 481.286L729.693 413.242C731.736 403.235 723.561 393.896 713.342 393.896H648.621C643.171 393.896 637.72 396.564 634.314 401.234L576.406 490.625C567.549 504.634 553.243 514.641 537.573 518.643L462.633 538.656C456.501 540.658 451.732 545.327 450.37 551.331L442.195 596.027C440.151 606.033 448.326 615.372 458.545 615.372H811.446C840.059 615.372 861.179 640.722 856.41 668.073L835.29 786.15C832.565 797.49 840.741 806.162 850.96 806.162Z" fill="#4D2DB4"/>
<path d="M667.01 650.059H560.05C551.875 650.059 545.062 656.063 543.699 663.401L522.58 779.476C516.448 814.832 535.524 849.521 568.907 863.53L791.002 956.924C797.815 959.592 801.903 967.597 800.54 974.935L788.277 1042.98C786.233 1052.99 794.409 1062.33 804.628 1062.33H869.349C874.799 1062.33 880.249 1059.66 883.656 1054.99L941.564 965.596C950.421 951.587 964.728 941.581 980.397 937.578L1055.34 917.565C1061.47 915.564 1066.24 910.894 1067.6 904.89L1075.78 860.195C1077.82 850.188 1069.64 840.849 1059.42 840.849H706.524C677.911 840.849 656.791 815.499 661.56 788.148L682.68 670.072C684.723 658.731 677.229 650.059 667.01 650.059Z" fill="#4D2DB4"/>
<path d="M1288.01 600.701H1175.6C1170.83 600.701 1167.42 596.699 1167.42 591.362V558.007C1167.42 552.671 1170.83 548.668 1175.6 548.668H1527.81C1532.58 548.668 1535.99 552.671 1535.99 558.007V591.362C1535.99 596.699 1532.58 600.701 1527.81 600.701H1416.09C1411.32 600.701 1407.91 604.704 1407.91 610.041V843.525C1407.91 848.862 1404.5 852.865 1399.73 852.865H1303.67C1298.91 852.865 1295.5 848.862 1295.5 843.525V610.041C1296.18 605.371 1292.77 600.701 1288.01 600.701Z" fill="#4D2DB4"/>
<path d="M1504.66 851.536C1490.36 847.533 1480.14 840.862 1474.69 830.188C1469.24 820.182 1465.83 804.839 1465.83 784.826C1465.83 766.814 1469.24 752.805 1475.37 742.132C1481.5 732.125 1491.72 724.12 1505.35 720.117C1518.97 715.448 1550.31 713.446 1574.84 713.446H1672.26C1677.03 713.446 1680.43 709.444 1680.43 704.107V698.103C1680.43 688.764 1678.39 681.426 1674.98 676.756C1671.58 672.086 1664.76 668.751 1655.23 666.75C1645.69 664.748 1631.38 664.081 1611.62 664.081C1586.42 664.081 1542.82 665.415 1499.21 668.751C1494.45 669.418 1490.36 664.748 1490.36 659.412V634.729C1490.36 630.059 1493.76 626.057 1497.85 625.39C1531.23 622.721 1578.92 621.387 1621.16 621.387C1660.68 621.387 1703.6 623.388 1725.4 628.058C1747.2 632.728 1762.19 640.066 1771.72 650.739C1781.26 661.413 1786.03 676.756 1786.03 696.769V843.53C1786.03 848.867 1782.62 852.87 1777.86 852.87H1689.97C1685.2 852.87 1681.8 848.867 1681.8 843.53V837.527C1681.8 835.525 1679.75 834.191 1677.71 835.525C1670.9 841.529 1653.86 853.537 1634.11 854.871C1621.16 856.205 1603.45 857.539 1580.97 857.539C1552.35 857.539 1518.97 855.538 1504.66 851.536ZM1658.63 813.511C1664.76 812.844 1668.85 812.177 1670.9 810.843C1672.94 809.508 1674.98 807.507 1677.03 804.839C1679.07 802.837 1679.75 799.502 1679.75 794.832V761.477C1679.75 755.474 1675.66 750.804 1670.21 750.804H1615.03C1600.72 750.804 1590.51 751.471 1584.37 752.805C1578.24 754.139 1574.15 756.808 1572.11 761.477C1570.07 765.48 1568.7 772.818 1568.7 783.492C1568.7 793.498 1570.07 800.836 1572.11 804.839C1574.15 808.841 1578.24 811.51 1584.37 812.844C1590.51 814.178 1601.41 814.845 1617.76 814.845C1636.83 814.845 1650.46 814.178 1658.63 813.511Z" fill="#4D2DB4"/>
<path d="M1840.51 943.592V916.241C1840.51 910.904 1844.6 906.901 1849.37 906.901C1887.52 910.237 1932.48 912.238 1965.18 912.238C1996.52 912.238 2019.68 908.236 2033.31 900.898C2046.94 893.559 2053.75 880.885 2053.75 863.54V832.854C2053.75 830.185 2051.02 829.518 2049.66 830.852C2043.53 836.856 2037.4 841.526 2031.27 845.529C2023.77 849.531 2014.23 852.867 2002.65 854.201C1991.07 856.202 1974.72 856.869 1954.28 856.869C1923.62 856.869 1887.52 854.868 1869.8 850.865C1852.09 846.863 1838.47 839.525 1830.97 829.518C1822.8 819.512 1818.71 806.17 1818.71 788.825V700.101C1818.71 679.421 1822.11 663.411 1829.61 652.07C1837.1 640.73 1850.05 632.724 1868.44 628.055C1886.84 623.385 1924.99 620.717 1959.05 620.717C1981.53 620.717 1998.56 621.384 2010.15 623.385C2021.73 625.386 2030.59 628.055 2036.72 632.057C2041.49 635.393 2046.94 640.062 2053.07 646.733C2054.43 648.735 2057.15 647.4 2057.15 644.732V634.726C2057.15 629.389 2060.56 625.386 2065.33 625.386H2151.85C2156.62 625.386 2160.03 629.389 2160.03 634.726V864.207C2160.03 896.228 2145.04 919.576 2115.06 933.585C2085.09 947.594 2027.18 954.932 1965.86 954.932C1920.22 954.932 1875.25 954.265 1849.37 952.264C1843.23 952.931 1840.51 948.929 1840.51 943.592ZM2028.54 812.174C2038.08 810.172 2044.21 807.504 2047.62 802.834C2051.02 798.832 2053.07 792.828 2053.07 784.823V693.43C2053.07 684.758 2051.02 678.754 2047.62 674.751C2044.21 670.749 2037.4 667.414 2027.86 666.079C2018.32 664.745 2002.65 663.411 1981.53 663.411C1964.5 663.411 1951.56 664.078 1943.38 666.079C1935.21 668.081 1929.76 671.416 1927.03 675.419C1924.31 680.088 1922.94 686.759 1922.94 695.432V782.154C1922.94 791.494 1924.31 798.832 1927.03 802.834C1929.76 806.837 1935.21 810.172 1944.06 811.507C1952.92 813.508 1966.54 814.175 1986.3 814.175C2005.38 814.842 2019 814.175 2028.54 812.174Z" fill="#4D2DB4"/>
<path d="M2205.68 544.67H2294.93C2299.7 544.67 2303.11 548.672 2303.11 554.009V590.699C2303.11 596.036 2299.7 600.039 2294.93 600.039H2205.68C2200.92 600.039 2197.51 596.036 2197.51 590.699V554.009C2197.51 548.672 2201.6 544.67 2205.68 544.67ZM2205.68 626.056H2294.93C2299.7 626.056 2303.11 630.058 2303.11 635.395V843.529C2303.11 848.866 2299.7 852.869 2294.93 852.869H2205.68C2200.92 852.869 2197.51 848.866 2197.51 843.529V635.395C2197.51 630.058 2201.6 626.056 2205.68 626.056Z" fill="#4D2DB4"/>
<path d="M2459.1 856.226C2446.84 855.559 2421.63 853.558 2407.32 850.889C2391.66 847.554 2379.39 843.551 2369.85 837.547C2360.32 831.543 2352.82 823.538 2346.01 812.865C2339.88 802.858 2336.47 790.183 2336.47 775.507V708.797C2336.47 694.121 2339.88 680.779 2346.01 669.439C2352.14 658.098 2361 649.426 2371.22 643.422C2380.07 638.085 2392.34 633.415 2406.64 630.08C2421.63 626.744 2447.52 624.076 2461.83 623.409C2478.18 622.742 2493.17 622.742 2506.11 622.742C2525.87 622.742 2541.54 623.409 2553.12 624.076C2564.7 624.743 2589.91 626.744 2604.21 630.08C2619.88 633.415 2632.15 638.085 2641.68 644.089C2651.22 650.093 2659.4 658.765 2666.21 669.439C2672.34 680.779 2675.75 694.121 2675.75 709.465V776.174C2675.75 790.183 2672.34 802.858 2666.21 812.865C2660.08 823.538 2651.9 831.543 2642.36 837.547C2633.51 842.884 2621.93 846.887 2607.62 850.222C2592.63 853.558 2566.74 855.559 2552.44 856.226C2539.49 856.893 2524.5 857.56 2506.11 857.56C2487.71 857.56 2471.36 856.893 2459.1 856.226ZM2546.3 811.53C2555.16 809.529 2561.29 806.194 2565.38 802.191C2568.79 797.521 2570.83 791.518 2570.83 782.845V697.457C2570.83 684.782 2566.06 676.11 2557.21 671.44C2548.35 666.77 2531.32 664.102 2506.79 664.102C2482.27 664.102 2465.23 666.77 2456.38 671.44C2447.52 676.11 2442.75 685.449 2442.75 697.457V782.845C2442.75 791.518 2444.79 797.521 2448.2 802.191C2451.61 806.861 2458.42 809.529 2467.28 811.53C2476.13 813.532 2489.76 814.866 2506.79 814.866C2524.5 814.866 2537.45 814.199 2546.3 811.53Z" fill="#4D2DB4"/>
<path d="M2715.95 626.057H2804.52C2809.29 626.057 2812.69 630.059 2812.69 635.396V644.068C2812.69 646.737 2815.42 648.071 2816.78 646.07C2829.04 630.059 2861.06 621.387 2912.16 621.387C2951.67 621.387 2991.87 626.724 3008.22 636.73C3024.57 647.404 3032.06 663.414 3032.06 686.096V842.863C3032.06 848.2 3028.66 852.203 3023.89 852.203H2934.64C2929.87 852.203 2926.47 848.2 2926.47 842.863V694.768C2926.47 686.095 2925.1 679.425 2923.06 675.422C2921.02 670.752 2916.25 668.084 2908.75 666.083C2901.94 664.081 2891.04 663.414 2876.05 663.414C2857.66 663.414 2844.03 664.081 2835.86 666.083C2827 668.084 2821.55 670.752 2818.83 675.422C2816.1 680.092 2814.06 686.763 2814.06 695.435V843.53C2814.06 848.867 2810.65 852.87 2805.88 852.87H2716.63C2711.87 852.87 2708.46 848.867 2708.46 843.53V635.396C2707.78 630.059 2711.18 626.057 2715.95 626.057Z" fill="#4D2DB4"/>
</svg>
