<?xml version="1.0" encoding="utf-8"?>
<!-- Generator: Adobe Illustrator 25.1.0, SVG Export Plug-In . SVG Version: 6.00 Build 0)  -->
<svg version="1.0" id="Layer_1" xmlns="http://www.w3.org/2000/svg" xmlns:xlink="http://www.w3.org/1999/xlink" x="0px" y="0px"
	 viewBox="0 0 540 216.66" style="enable-background:new 0 0 540 216.66;" xml:space="preserve">
<style type="text/css">
	.st0{fill:#FFFFFF;}
	.st1{fill:#231F20;}
	.st2{fill:#0E2934;}
	.st3{fill:#F04C3E;}
</style>
<g>
	<path class="st3" d="M385.45,67.72v29.05c-10.6-1.71-25.63,2.56-25.63,19.48v38.62h-25.63V69.43h25.63v15.21
		C363.23,73.19,374.68,67.72,385.45,67.72z"/>
	<path class="st3" d="M480.8,69.43v85.44h-17.6c-4.44,0-8.03-3.6-8.03-8.03l0,0c-5.64,6.49-14.01,10.42-25.46,10.42
		c-22.39,0-40.84-19.65-40.84-45.12s18.46-45.11,40.84-45.11c11.45,0,19.82,3.93,25.46,10.42v-8.03H480.8z M455.17,112.15
		c0-12.82-8.54-20.85-20.34-20.85c-11.79,0-20.34,8.03-20.34,20.85c0,12.82,8.54,20.85,20.34,20.85
		C446.62,133,455.17,124.97,455.17,112.15z"/>
	<path class="st3" d="M278.86,67.77c-11.42,0-22.1,3.85-32.65,11.77c-7.98,5.99-16.04,14.45-25.37,26.65
		c-15.94,20.83-27.42,29.32-39.61,29.32c-12.28,0-22.28-9.99-22.28-22.28s9.99-22.28,22.28-22.28c9.31,0,18.21,4.98,28.99,16.59
		l15.3-17.56c-3.98-4.13-7.82-7.58-11.63-10.45c-10.55-7.92-21.23-11.77-32.65-11.77c-15.5,0-29.19,7.81-37.4,19.68V69.43H118.2
		v46.65c0,12.13-6.49,17.6-15.89,17.6c-8.2,0-14.87-4.96-14.87-15.55v-48.7H61.8v52.46c0,23.07,14.7,35.38,31.96,35.38
		c11.28,0,19.82-4.1,24.44-10.42c0,4.44,3.6,8.03,8.03,8.03h17.6v-15.86c8.21,11.87,21.9,19.68,37.4,19.68
		c11.42,0,22.1-3.85,32.65-11.77c7.98-5.99,16.04-14.45,25.37-26.65c15.94-20.83,27.42-29.32,39.61-29.32
		c12.28,0,22.28,9.99,22.28,22.28s-9.99,22.28-22.28,22.28c-8.93,0-17.59-4.7-27.77-15.31l-15.28,17.54
		c4.21,4.25,8.29,7.75,12.4,10.63c9.92,6.94,19.94,10.32,30.65,10.32c25.07,0,45.46-20.39,45.46-45.46S303.93,67.77,278.86,67.77z"
		/>
</g>
</svg>
