<?xml version="1.0" encoding="UTF-8" standalone="no"?>
<svg
   xmlns:dc="http://purl.org/dc/elements/1.1/"
   xmlns:cc="http://creativecommons.org/ns#"
   xmlns:rdf="http://www.w3.org/1999/02/22-rdf-syntax-ns#"
   xmlns:svg="http://www.w3.org/2000/svg"
   xmlns="http://www.w3.org/2000/svg"
   xmlns:xlink="http://www.w3.org/1999/xlink"
   xmlns:sodipodi="http://sodipodi.sourceforge.net/DTD/sodipodi-0.dtd"
   xmlns:inkscape="http://www.inkscape.org/namespaces/inkscape"
   version="1.0"
   width="680"
   height="680"
   viewBox="0 0 544.93152 544.00001"
   preserveAspectRatio="xMidYMid meet"
   id="svg2"
   sodipodi:version="0.32"
   inkscape:version="0.48.5 r10040"
   sodipodi:docname="compiler-gdc.svg"
   inkscape:output_extension="org.inkscape.output.svg.inkscape">
  <defs
     id="defs33">
    <linearGradient
       id="linearGradient4130">
      <stop
         style="stop-color:#ffffff;stop-opacity:0.48214287;"
         offset="0"
         id="stop4132" />
      <stop
         style="stop-color:#ffffff;stop-opacity:0;"
         offset="1"
         id="stop4134" />
    </linearGradient>
    <linearGradient
       x1="27.247862"
       y1="33.562527"
       x2="44.49588"
       y2="47.030663"
       id="linearGradient3426"
       xlink:href="#linearGradient3420"
       gradientUnits="userSpaceOnUse"
       gradientTransform="matrix(1,0,0,0.991763,-0.677924,0.501242)"
       spreadMethod="reflect" />
    <linearGradient
       id="linearGradient3420">
      <stop
         id="stop3430"
         style="stop-color:#eeeeec;stop-opacity:0.39607844;"
         offset="0" />
      <stop
         id="stop3424"
         style="stop-color:#f2f2f0;stop-opacity:0.13725491;"
         offset="1" />
    </linearGradient>
    <linearGradient
       x1="24.48222"
       y1="30.993589"
       x2="104.02448"
       y2="90.718597"
       id="linearGradient3462"
       xlink:href="#linearGradient3456"
       gradientUnits="userSpaceOnUse"
       gradientTransform="matrix(0.99719,0,0,0.988716,-0.49737,0.686728)" />
    <linearGradient
       id="linearGradient3456">
      <stop
         id="stop3458"
         style="stop-color:#ffffff;stop-opacity:1"
         offset="0" />
      <stop
         id="stop3460"
         style="stop-color:#ffffff;stop-opacity:0.33333334"
         offset="1" />
    </linearGradient>
    <linearGradient
       x1="27.247862"
       y1="33.562527"
       x2="44.49588"
       y2="47.030663"
       id="linearGradient2232"
       xlink:href="#linearGradient3420"
       gradientUnits="userSpaceOnUse"
       gradientTransform="matrix(1,0,0,-0.991763,-0.677924,121.0142)"
       spreadMethod="reflect" />
    <linearGradient
       id="linearGradient3072">
      <stop
         id="stop3074"
         style="stop-color:#f2f2f0;stop-opacity:0.13541667"
         offset="0" />
      <stop
         id="stop3076"
         style="stop-color:#eeeeec;stop-opacity:0.39583334"
         offset="1" />
    </linearGradient>
    <clipPath
       clipPathUnits="userSpaceOnUse"
       id="clipPath4038">
      <path
         sodipodi:nodetypes="ccccssssssssssssssc"
         id="path4040"
         d="m 314.59256,51.488159 c -6.76027,10.33743 -13.52055,20.67485 -20.28082,31.01227 32.04934,37.200501 64.09867,74.401001 96.14801,111.601501 4.51207,-18.46275 7.81407,1.67713 11.5027,9.4831 9.87751,22.33412 11.41517,47.22179 14.49539,71.119 5.82975,45.22892 3.90921,71.70171 -0.23977,96.3823 -13.44425,79.97444 -61.13526,126.653 -106.68463,153.5286 -15.58104,9.1933 -30.57738,15.6206 -52.57332,18.6219 -22.66509,3.0926 -44.87239,1.8682 -67.62562,-2.5652 -18.78435,-3.6601 -37.67752,-9.8286 -55.02691,-17.7795 -27.66265,-12.6774 -50.49619,-34.6199 -68.368866,-58.6912 -17.290849,-23.2877 -28.197122,-51.0763 -36.480272,-78.9223 -15.066541,-50.6501 -21.4366951,-104.5884 -9.418788,-156.69359 7.491185,-32.47899 18.292557,-64.64271 33.064573,-94.29931 15.676121,-31.47171 37.709798,-59.974931 64.381223,-83.609461 16.01673,-14.19302 33.42726,-27.27148 53.0287,-35.16613 14.37849,-5.7910698 29.59909,-7.0958998 45.31163,-6.0597098 15.53576,1.0245298 30.36535,2.7650698 45.16608,8.0285798 20.1406,7.16249 39.12107,18.36592 53.60069,34.00915 z"
         style="fill:#a40000;fill-opacity:1;fill-rule:evenodd;stroke:#000000;stroke-width:4.32739735;stroke-linecap:butt;stroke-linejoin:miter;stroke-miterlimit:4;stroke-opacity:1;stroke-dasharray:none;display:inline"
         inkscape:connector-curvature="0" />
    </clipPath>
    <radialGradient
       inkscape:collect="always"
       xlink:href="#linearGradient3420"
       id="radialGradient4052"
       cx="254.21297"
       cy="279.47864"
       fx="254.21297"
       fy="279.47864"
       r="229.00873"
       gradientTransform="matrix(0.90038847,0.47226419,-0.73474548,1.4008184,278.1778,-209.11495)"
       gradientUnits="userSpaceOnUse"
       spreadMethod="pad" />
    <linearGradient
       inkscape:collect="always"
       xlink:href="#linearGradient4130"
       id="linearGradient4136"
       x1="268.12814"
       y1="53.402859"
       x2="268.12814"
       y2="227.97972"
       gradientUnits="userSpaceOnUse" />
  </defs>
  <sodipodi:namedview
     inkscape:window-height="1480"
     inkscape:window-width="1728"
     inkscape:pageshadow="2"
     inkscape:pageopacity="0.0"
     borderopacity="1.0"
     bordercolor="#666666"
     pagecolor="#ffffff"
     id="base"
     inkscape:zoom="0.68623902"
     inkscape:cx="170.49467"
     inkscape:cy="588.92901"
     inkscape:window-x="2153"
     inkscape:window-y="243"
     inkscape:current-layer="layer1"
     width="584px"
     height="688.75px"
     showgrid="false"
     inkscape:window-maximized="0"
     fit-margin-top="0"
     fit-margin-left="0"
     fit-margin-right="0"
     fit-margin-bottom="0" />
  <metadata
     id="metadata4">
Created by potrace 1.7, written by Peter Selinger 2001-2005
<rdf:RDF>
  <cc:Work
     rdf:about="">
    <dc:format>image/svg+xml</dc:format>
    <dc:type
       rdf:resource="http://purl.org/dc/dcmitype/StillImage" />
    <dc:title />
  </cc:Work>
</rdf:RDF>
</metadata>
  <g
     inkscape:groupmode="layer"
     id="layer1"
     inkscape:label="Colors"
     style="display:inline"
     transform="translate(-1.479798,-2.6571824)">
    <path
       style="fill:#b80000;fill-opacity:1;fill-rule:evenodd;stroke:#000000;stroke-width:4.32739735;stroke-linecap:butt;stroke-linejoin:miter;stroke-miterlimit:4;stroke-opacity:1;stroke-dasharray:none;display:inline"
       d="m 362.47116,51.488159 c -6.76027,10.33743 -13.52055,20.67485 -20.28082,31.01227 32.04934,37.200501 64.09867,74.401001 96.14801,111.601501 4.51207,-18.46275 7.81407,1.67713 11.5027,9.4831 9.87751,22.33412 11.41517,47.22179 14.49539,71.119 5.82975,45.22892 3.90921,71.70171 -0.23977,96.3823 -13.44425,79.97444 -61.13526,126.653 -106.68463,153.5286 -15.58104,9.1933 -30.57738,15.6206 -52.57332,18.6219 -22.66509,3.0926 -44.87239,1.8682 -67.62562,-2.5652 -18.78435,-3.6601 -37.67752,-9.8286 -55.02691,-17.7795 -27.66265,-12.6774 -50.49619,-34.6199 -68.36886,-58.6912 -17.290853,-23.2877 -28.197126,-51.0763 -36.480276,-78.9223 -15.066541,-50.6501 -21.436695,-104.5884 -9.418788,-156.69359 7.491185,-32.47899 18.292557,-64.64271 33.064574,-94.29931 15.67612,-31.47171 37.7098,-59.974931 64.38122,-83.609461 16.01673,-14.19302 33.42726,-27.27148 53.0287,-35.16613 14.37849,-5.7910698 29.59909,-7.0958998 45.31163,-6.0597098 15.53576,1.0245298 30.36535,2.7650698 45.16608,8.0285798 20.1406,7.16249 39.12107,18.36592 53.60069,34.00915 z"
       id="path1335"
       sodipodi:nodetypes="ccccssssssssssssssc"
       inkscape:connector-curvature="0" />
    <g
       id="dlogo"
       transform="matrix(1.2267822,0,0,1.2267822,3.0820524,-102.17101)"
       style="stroke:#920000;stroke-width:4.33156252;stroke-miterlimit:4;stroke-opacity:1;stroke-dasharray:none">
      <path
         style="font-size:64px;font-style:normal;font-variant:normal;font-weight:normal;font-stretch:normal;text-align:start;line-height:125%;writing-mode:lr-tb;text-anchor:start;fill:#eeeeec;fill-opacity:1;stroke:#920000;stroke-width:6.63100052;stroke-miterlimit:4;stroke-opacity:1;stroke-dasharray:none;font-family:Gill Sans MT"
         d="m 237.8125,407.78125 -73.15625,0.0937 c -0.31451,0.002 -0.6023,-0.0376 -0.90625,0 -3.58649,0.4434 -6.39436,3.31645 -6.40625,6.78125 l 0.21875,176.90625 c -0.0153,0.25233 -0.0148,0.52896 0,0.78125 -0.0412,0.41998 -0.0422,0.76762 0,1.1875 -3.7e-4,0.0421 -4.7e-4,0.14539 0,0.1875 0.0384,0.1698 0.13545,0.33341 0.1875,0.5 -3.5e-4,0.0421 -4.6e-4,0.0515 0,0.0937 0.0384,0.16985 0.0417,0.33341 0.0937,0.5 -3.7e-4,0.0421 -4.7e-4,0.14537 0,0.1875 0.0828,0.17161 0.18349,0.33533 0.28125,0.5 -3.5e-4,0.0421 -4.7e-4,0.0515 0,0.0937 0.12706,0.17387 0.29378,0.36906 0.4375,0.53125 -3.7e-4,0.0421 -4.7e-4,0.0203 0,0.0625 0.0828,0.17162 0.1835,0.36662 0.28125,0.53125 -3.5e-4,0.0421 -4.7e-4,0.11412 0,0.15625 0.17413,0.13364 0.37587,0.2256 0.5625,0.34375 -3.7e-4,0.0421 -4.6e-4,0.14537 0,0.1875 0.13012,0.13089 0.23436,0.22271 0.375,0.34375 0.0445,0.0426 0.14171,0.11486 0.1875,0.15625 0.13012,0.13089 0.20311,0.22272 0.34375,0.34375 0.045,3.1e-4 0.0486,4.6e-4 0.0937,0 0.33523,0.28257 0.70862,0.56094 1.09375,0.78125 0.0452,3.1e-4 0.14239,4.6e-4 0.1875,0 0.17661,0.0908 0.37841,0.17309 0.5625,0.25 0.045,3.1e-4 0.0486,4.4e-4 0.0937,0 0.17666,0.0908 0.37846,0.17309 0.5625,0.25 0.26779,0.0559 0.53967,0.0664 0.8125,0.0937 0.44574,0.0804 0.92099,0.15398 1.375,0.15625 l 0.71875,0 67.78125,-0.28125 c 19.3668,-0.0344 32.33742,-0.36708 40.0625,-1.34375 0.0452,3.2e-4 0.11114,4.6e-4 0.15625,0 7.3928,-1.02687 15.23524,-2.92279 23.75,-5.6875 14.80205,-4.62805 27.93291,-11.46078 39.21875,-20.59375 11.04997,-8.84763 19.60651,-19.30991 25.625,-31.09375 3.93217,-7.69944 6.60489,-15.69079 7.96875,-23.90625 A 51.510153,47.217641 0 0 0 424.9375,469.78125 51.510153,47.217641 0 0 0 338.0625,435.5 c -7.93997,-6.57521 -17.02558,-12.03615 -27.15625,-16.28125 -18.63743,-7.90141 -42.94629,-11.49136 -73.09375,-11.4375 z M 234.65625,444.25 c 14.73948,-0.026 25.23945,0.43317 31.1875,1.25 6.02963,0.82833 12.63157,2.54854 19.625,5.25 6.93137,2.64103 12.96417,5.87998 18.15625,9.90625 -3.7e-4,0.0421 -4.7e-4,0.14539 0,0.1875 14.2839,10.93449 21.03159,24.06654 21.0625,41.46875 0.0314,17.81872 -6.49228,31.70365 -20.40625,43.34375 -4.2802,3.53291 -9.03011,6.52064 -14.28125,9 -4.96316,2.31141 -11.44989,4.31485 -19.625,6.03125 -7.71001,1.54228 -19.41846,2.41024 -34.65625,2.4375 l -32.4375,0.0625 -0.15625,-118.90625 31.53125,-0.0312 z"
         transform="matrix(0.65322912,0,0,0.65322912,27.370278,68.528158)"
         id="path2242"
         inkscape:connector-curvature="0" />
      <path
         style="fill:#eeeeec;fill-opacity:1;fill-rule:nonzero;stroke:#920000;stroke-width:4.33156252;stroke-miterlimit:4;stroke-opacity:1;stroke-dasharray:none;display:inline"
         id="path2222"
         d="m 320.45187,341.50058 a 10.811495,9.9105372 0 1 1 -21.62299,0 10.811495,9.9105372 0 1 1 21.62299,0 z"
         inkscape:connector-curvature="0" />
    </g>
    <rect
       width="458.01746"
       height="538.36359"
       rx="32.312679"
       ry="55.888298"
       x="49.358398"
       y="5.2312675"
       id="phong"
       style="fill:url(#radialGradient4052);fill-opacity:1;fill-rule:nonzero;stroke:none" />
    <path
       style="fill:#cd0707;fill-opacity:1;fill-rule:evenodd;stroke:#000000;stroke-width:1.04141939px;stroke-linecap:butt;stroke-linejoin:miter;stroke-opacity:1;display:inline"
       d="m 373.82292,71.336371 19.7453,24.895232 5.15088,8.585467 -37.77334,-12.877467 4.29274,-12.018499 8.58442,-8.584733 z"
       id="path3100"
       inkscape:connector-curvature="0" />
    <path
       sodipodi:type="arc"
       style="fill:url(#linearGradient4136);fill-opacity:1;fill-rule:nonzero;stroke:none"
       id="gloss"
       sodipodi:cx="269.58536"
       sodipodi:cy="194.75302"
       sodipodi:rx="157.37956"
       sodipodi:ry="145.72182"
       d="m 269.58536,340.47484 a 157.37956,145.72182 0 1 1 0.3943,-4.6e-4 l -0.3943,-145.72136 z"
       transform="matrix(0.97203197,0,0,1.3663356,1.8705974,-43.353719)"
       sodipodi:start="1.5707963"
       sodipodi:end="7.8514762" />
    <g
       id="gnu"
       transform="translate(47.878602,0)">
      <path
         style="fill:#7e1f1f;fill-opacity:1;fill-rule:evenodd;stroke:#000000;stroke-width:1.04141939px;stroke-linecap:butt;stroke-linejoin:miter;stroke-opacity:1;display:inline"
         d="m 311.3509,90.222719 18.88614,10.301631 19.74427,6.00898 -26.61242,14.59446 -19.74427,-1.7173 -1.7173,-13.73529 9.44358,-15.452481 z"
         id="path3976"
         inkscape:connector-curvature="0" />
      <path
         inkscape:connector-curvature="0"
         sodipodi:nodetypes="ccccccccccccccccccccccccccccccccccccccc"
         id="path4852"
         d="m 166.26869,188.08792 13.73632,22.32076 -13.73632,35.19685 32.62246,6.01002 6.86712,6.86711 20.60344,31.7633 65.24388,-34.33872 19.42269,5.36585 20.92608,-6.22399 -14.59446,-15.45258 2.57544,-4.29272 6.86814,-4.29169 3.43356,11.15985 6.00901,13.73528 16.31071,19.74532 4.29272,-2.57544 0.85814,-12.87714 15.16012,-2.66906 5.35039,-4.15747 13.39273,-1.6232 3.44014,-16.87501 -9.87178,-40.77728 0,-17.16988 15.45257,-2.57543 13.73528,10.30171 19.74427,5.15088 7.7263,-1.71732 -23.17783,-29.18785 -14.24737,-14.58727 -8.07338,-5.157 -15.45258,-10.30173 -31.7633,1.71626 -24.89512,6.01004 -21.46261,10.30171 -12.87612,-1.7173 -16.31174,-7.72628 -5.15086,-7.7263 -33.47955,-0.85813 -68.67849,59.23385 z"
         style="fill:#ab9a7e;fill-opacity:1;fill-rule:evenodd;stroke:#000000;stroke-width:1.04141939px;stroke-linecap:butt;stroke-linejoin:miter;stroke-opacity:1;display:inline" />
      <path
         inkscape:connector-curvature="0"
         id="path6604"
         d="m 346.54776,183.79623 13.73528,-12.019 7.72628,-0.85813 2.57545,4.29169 -12.01799,12.87713 -6.86815,2.57545 -5.15087,-6.86714 z"
         style="fill:#ffffff;fill-opacity:1;fill-rule:evenodd;stroke:#000000;stroke-width:1.04141939px;stroke-linecap:butt;stroke-linejoin:miter;stroke-opacity:1" />
      <path
         style="fill:#ffffff;fill-opacity:1;fill-rule:evenodd;stroke:#000000;stroke-width:1.04141939px;stroke-linecap:butt;stroke-linejoin:miter;stroke-opacity:1;display:inline"
         d="m 326.80348,230.15295 4.29169,11.16089 -2.57542,6.86712 -12.87716,-7.72631 3.43461,-6.00899 7.72628,-4.29271 z"
         id="path5728"
         inkscape:connector-curvature="0" />
      <path
         style="fill:#7e1f1f;fill-opacity:1;fill-rule:evenodd;stroke:#000000;stroke-width:1.04141939px;stroke-linecap:butt;stroke-linejoin:miter;stroke-opacity:1"
         d="m 165.41055,186.37168 -11.15983,-28.32974 12.01797,-6.00898 24.03805,-3.43462 44.64044,-54.941752 24.89512,3.434187 16.31071,-8.585043 12.01903,-2.575327 -18.88614,41.206365 -36.91416,4.29273 -66.96119,54.94218 z"
         id="path2211"
         inkscape:connector-curvature="0" />
      <path
         style="fill:#ffffff;fill-opacity:1;fill-rule:evenodd;stroke:#000000;stroke-width:1.04141939px;stroke-linecap:butt;stroke-linejoin:miter;stroke-opacity:1"
         d="m 371.39152,124.25784 -42.01259,10.60523 -27.47161,11.15984 -24.037,-6.86711 -8.58442,-10.30173 22.31969,-50.649955 20.91309,-25.900065 13.70091,-5.425417 15.17731,2.995959 15.72449,23.078058 16.47829,11.036147 -1.89793,3.338176 -24.29586,-8.264416 -21.46157,-9.443174 -20.60344,31.763097 -4.29168,11.16088 3.43355,10.30172 55.80029,-9.4436 5.95763,4.95115 5.15085,5.90521 z"
         id="path7479"
         sodipodi:nodetypes="cccccccccccccccccccc"
         inkscape:connector-curvature="0" />
      <path
         style="fill:#ffffff;fill-opacity:1;fill-rule:evenodd;stroke:#000000;stroke-width:1.04141939px;stroke-linecap:butt;stroke-linejoin:miter;stroke-opacity:1"
         d="m 387.75465,130.57033 9.83554,12.58965 6.20627,0.17481 22.94008,25.51657 5.70548,6.91953 10.25479,-6.56911 12.01797,-26.61243 6.66845,-21.15806 0.91055,-17.7245 -5.50576,-6.616015 -19.24206,0 -14.59446,3.433575 c 0,0 -12.01799,6.00898 -8.58443,6.00898 3.43357,0 19.74427,5.15086 19.74427,5.15086 l 6.86818,5.15086 1.71729,7.7263 -9.44359,18.88614 -4.29169,4.29272 -19.74531,-12.87714 -6.00899,-4.29274 -6.01003,-0.85813 -9.44255,0.85813 z"
         id="path8354"
         sodipodi:nodetypes="ccccccccccccsccccccccc"
         inkscape:connector-curvature="0" />
      <path
         style="fill:#ffffff;fill-opacity:1;fill-rule:evenodd;stroke:#9e0000;stroke-width:1.04141939px;stroke-linecap:butt;stroke-linejoin:miter;stroke-opacity:1"
         d="m 379.73571,230.93843 c -0.26557,-1.97285 -13.5064,0 -13.5064,0 0,0 -2.31431,7.89141 1.0623,7.89141 3.3766,0 12.70968,-5.91856 12.4441,-7.89141 z"
         id="path5093"
         sodipodi:nodetypes="cczz"
         inkscape:connector-curvature="0" />
      <g
         inkscape:groupmode="layer"
         id="layer2"
         inkscape:label="Drawing"
         style="display:inline">
        <g
           transform="matrix(0.2850198,0,0,-0.2850198,-5.4249234,564.95679)"
           id="g6"
           style="fill:#000000;stroke:none">
          <g
             id="g8">
            <path
               style="fill:#000000;fill-opacity:1"
               d="m 1412.6868,1338.2674 c 6.7524,10.8193 23.2943,9.4585 50.3132,-7.2674 22,-13 51,-15.6755 82.0649,-17.8053 50.8806,-3.4883 46.8186,4.0782 22.9351,28.1431 l -28.7769,25.8157 c 0,0 10.5878,-6.1299 28.1534,10.1055 C 1590.8909,1398.9927 1636,1499 1644,1571 c 9,73 -3,84 -81,75 -32,-4 -70.5324,-13.4027 -86.5324,-23.4027 0,0 -22.8511,-11.4351 -19.3511,-17.9351 3.5,-6.5 33.8835,-9.6622 33.8835,-9.6622 57,-9 72.6107,-27.8569 72.6107,-48.8569 0,-22 -29.6107,-76.1431 -43.6107,-76.1431 -5,0 -23,14 -40,30 -34,33 -52.2977,37.3245 -85.1946,27.5457 -18.4732,5.0628 -45.2898,7.7233 -66.9482,20.1734 -5.3074,3.0509 -1.9352,7.3395 -12.4413,20.5405 C 1296.431,1592.1143 1282,1590 1262,1585 c -25,-6 -26,-6 -7,8 19,14 18,16 -24,71 l -42,57 50,-25 c 51,-26 95,-33 105,-17 4,5 -10,18 -31,28 -20,10 -44,33 -53,50 -10,18 -23,39 -29,47 -15,17 -67.3278,26.1533 -95.4636,15.5122 -28.6878,-10.8499 -46.4737,-40.0111 -69.4838,-70.1568 -19.4268,-25.451 -30.2491,-44.6593 -39.3338,-60.1213 C 1008.0217,1693.6518 976,1680 963,1668 c -22,-20 -27,-21 -70,-10 -43,12 -48,11 -71,-10 -13,-13 -49,-58 -80,-100 -30,-43 -58,-78 -61,-79 -3,0 -24,-2 -46,-4 -22,-2 -52,-8 -67,-14 -24,-9 -26,-13 -19,-39 5,-15 27,-61 50,-101 l 41,-72 -25,-60 c -14,-33 -23,-64 -20,-68 3,-5 32,-12 65,-16 l 60,-7 46,-69 c 43,-65 50.67772,-68.64009 66,-61 5.15501,2.57043 30,20 63,36 33,17 78,42 100,57 31.1298,20.5457 62.6472,27.5244 79.3482,21.1776 10.1238,-3.8472 14.8032,-12.591 10.6518,-26.1776 -8.7294,-28.0588 -8.3308,-45.5189 -4.4143,-63.72196 C 1087.4046,974.98882 1096.2,971.65881 1109,963 c 44.1295,-27.11752 61,-29 62,0 l 0,22 11,-23 c 16,-33 42,-24 46,17 3,24 -3,40 -19,57 -12,13 -18.247,30.0239 -13.247,30.0239 10,0 44.247,-46.0239 44.247,-58.0239 0,-4 6,-8 14,-8 15,0 26,21 26,50 0,11.0508 29.8385,17.2803 57.6812,27.1474 7.4306,2.6333 7.377,6.363 14.4868,11.2286 13.4373,-2.8159 9.0169,-3.0001 19.0404,-2.2877 14.9104,1.0597 21.5581,5.2591 25.7916,11.9117 21,34 24,77 8,115 -8,20 -15,61.5021 -14,79.5021 0,0 0.9547,11.8911 5.3533,23.6502 M 1280,1184 c 0,20 -4,20 -40,1 -17,-9 -30,-23 -30,-32 0,-23 29,-53 51,-53 10,0 58.1199,-9.0012 71.2364,-9.1443 -0.283,-3.8272 -5.8146,-7.1592 -9.4651,-8.3255 -15.1496,-4.8405 -39.9072,-2.1419 -48.7713,-0.5302 -16,2 -18,-3 -17,-32 2,-19 0,-28 -4,-20 -3,8 -17,26 -32,40 -16,15 -27,39 -29,60 -5,47 -25,83 -65,117 -42,35 -58,63 -50,91 4,16 13,22 32,22 34,1 98,30 139,64 54,47 36,49 -28,4 -53,-37 -68,-43 -128,-46 l -67,-5 33,34 c 17,18 32,36 32,40 0,21 92,60 161,68 98,11 103,10 109,-23 7,-38 29,-47 23,-9 -4,27 -4,27 11,9 9,-11 16,-31 16,-45 0,-14 3,-36 6,-48 5,-17 0,-22 -26,-28 l -33,-7 7,-59 c 3,-32 13,-75 21,-96 15,-35 12,-97 -5,-108 -4,-3 -29,-2 -54,1 -41,6 -46,9 -46,33 m -75,665 c 9,-4 25,-24 35,-45 11,-21 30,-45 42,-53 12.2607,-8.7116 44.0886,-21.1296 42.2589,-22.8496 -3.8412,-3.6107 -61.682,14.5291 -98.2589,34.8496 -28,16 -57,27 -64,24 -8,-2 -31,-31 -53,-65 -44,-68 -52,-121 -20,-132 19,-6 159.985,27.3629 183,31 16.6514,2.6314 38,-14 38,-26 0,-4 -30,-10 -66,-13 -43,-4 -82,-15 -111,-32 -52,-29 -82,-31 -123,-10 -41,21 -39,43 20,161 65,133 111,172 175,148 z m -5,-121 c 43,-65 43,-62 13,-54 -44,13 -78.4821,33.3765 -86.765,38.8585 7.1535,15.741 24.765,52.1415 36.765,52.1415 7,0 23,-17 37,-37 z m -190,-17 c 0,-2 -11,-28 -25,-59 -23,-49 -29,-55 -63,-61 -20,-3 -50,-6 -67,-6 -24,0 -47,-16 -110,-78 -44,-43 -94,-88 -111,-100 l -31,-21 -18,40 c -22,49 -16,57 53,63 57,5 63,9 109,76 17,25 48,65 70,89 34,39 41,43 60,32 32,-17 68,-13 94,9 22,18 39,25 39,16 z m 179,-49 44,-14 -34,-17 c -18,-9 -49,-19 -69,-22 -45,-7 -54,7 -34,54 8.2545,20.9537 13.7935,25.7507 18.4239,33.3664 C 1119.6269,1649.3732 1165,1625 1189,1617 z m 445.4542,-21.3511 C 1636.4542,1560.6489 1622,1515 1602,1466 c -31,-78 -61.8569,-108.3245 -79.8569,-76.3245 -10.3996,18.1993 -34.5463,54.6152 -74.86,87.7076 -3.0295,2.4868 -6.9456,6.5072 -15.5729,8.4931 -12.5936,2.8988 -16.0836,-2.05 -19.3591,0.4749 C 1395.4676,1508.9485 1396,1519 1418,1520 c 12,0 30,-9 40,-21 9,-11 29,-27 43,-34 24,-13 28,-12 49,10 16,17 25.0715,41.2174 26.6622,71.8569 C 1578.2271,1577 1567,1594 1516,1605 c -15,3 -44.6355,2.6106 -40.6355,5.6106 9,9 95.6355,27.3894 124.6355,26.3894 23,-2 33.5191,0.3893 34.4542,-41.3511 z M 1006,1476 c 19,-9 41,-16 49,-16 26,0 -5,-37 -47,-56 -21,-9 -38,-20 -38,-24 0,-4 20,-11 45,-15 40,-5 45,-9 40,-26 -10,-32 12,-72 61,-114 39,-32 44,-40 32,-51 -10,-10 -25,-12 -58,-6 l -45,8 3,52 c 3,57 -12,71 -22,21 -15,-76 -6,-90 65,-103 20,-3 46,-17 58,-30 l 22,-24 -29,-10 c -17,-6 -34,-7 -38,-2 -21,18 -71,18 -99,0 l -29,-19 -40,32 c -56,43 -63,54 -82,114 -14,48 -29,71 -39,61 -2,-2 5,-31 17,-66 19,-59 46,-95 103,-136 11,-8 18,-16 15,-19 -7,-6 -128,-67 -134,-67 -3,0 -24,29 -47,65 -36,56 -46,65 -73,66 -17,1 -43,4 -58,8 l -26,6 24,58 25,58 -22,35 c -13,22 -18,41 -14,52 7,15 9,14 14,-6 8,-31 24,-29 26,3 0,14 14,38 29,53 16,15 26,22 22,15 -7,-14 3,-43 15,-43 5,0 9,15 9,33 0,23 11,44 40,77 34,39 39,42 40,23 0,-13 6,-23 13,-23 9,0 12,9 9,29 l -4,30 58,3 c 46,2 61,-1 67,-13 5,-9 24,-24 43,-33 z m 283.2517,-313.1627 c -0.7823,-5.1975 1.1782,-11.9559 3.3869,-15.9693 10.2398,-18.607 39.8506,-12.3176 63.3614,14.132 14,15 14,19 2,24 -14.0719,6.1564 -55.883,0.4798 -62.5029,-6.2942 -3.9786,-4.0699 -5.4654,-10.6857 -6.2454,-15.8685 z M 1485,1421 c 11,-14 30,-41 43,-59 0,0 8.4123,-10.4324 18.1155,-19.9354 9.7032,-9.503 20.6973,-18.0766 20.6973,-18.0766 0,0 -16.0989,-0.7739 -50.8128,9.012 -79.7572,22.4836 -85,34 -79,58 5,19 7,19 33,-6 14,-14 30,-22 33,-18 11,10 -43,62 -59,56 -14,-5 -26.5738,32.4101 -23.0598,49.5242 0.949,4.6216 5.6212,4.7566 11.8091,2.0875 12.3896,-5.3441 29.6671,-25.3822 52.2507,-53.6117 z m -88,-68 c -4,-3 -10,-3 -14,0 -3,4 0,7 7,7 7,0 10,-3 7,-7 z m -137,-208 c 0,-26 -14,-33 -25,-15 -9,14 1,40 15,40 5,0 10,-11 10,-25 z m 83.1947,23.1298 c 0,-5.5 -31.7429,-24.3971 -35.9357,-12.6478 -4.3118,12.0827 4.5152,15.0982 15.4681,16.1153 11.4676,1.0649 20.4676,2.0325 20.4676,-3.4675 z M 1170,1145 c 0,-8 -4,-15 -9,-15 -13,0 -22,16 -14,24 11,11 23,6 23,-9 z"
               id="path10"
               sodipodi:nodetypes="ccsccscccscssccsscscccccccssccccccscccccccccsccsccccccccssssscscccsccsscscccccccccccccsccccscccccccccccsccscssccscccccsccccsccccccccccccccccccccsscccccscccccscscccccccccccccccccscccsccccccccccccssccsccccccsccscccscsccccsscccscccsccssccssc"
               inkscape:connector-curvature="0" />
            <g
               id="g24">
              <path
                 d="m 1312,1403 c 15,-15 31,-24 34,-20 10,10 -26,47 -45,47 -11,0 -8,-7 11,-27 z"
                 id="path26"
                 inkscape:connector-curvature="0" />
            </g>
            <g
               id="g28">
              <path
                 d="m 1247,1365 c -22,-21 -25,-30 -17,-45 6,-11 18,-20 26,-20 21,0 77,57 72,73 -8,23 -52,19 -81,-8 z m 63,5 c 0,-5 -7,-10 -15,-10 -8,0 -19,-9 -25,-20 -6,-11 -16,-17 -22,-14 -7,5 -2,16 16,31 29,24 46,29 46,13 z"
                 id="path30"
                 inkscape:connector-curvature="0" />
            </g>
            <path
               style="fill:#7e1f1f;fill-opacity:1;fill-rule:evenodd;stroke:#000000;stroke-width:1.24000001;stroke-linecap:butt;stroke-linejoin:miter;stroke-miterlimit:4;stroke-opacity:1;stroke-dasharray:none"
               d="m 319.59749,230.14102 c 0,0 -1.82469,1.95234 -3.91569,3.4225 -2.091,1.47017 -4.73975,2.45815 -4.73975,2.45815 0,0 9.85657,12.7417 11.29914,11.09305 1.44257,-1.64865 0.39753,-4.48379 -0.22072,-8.19326 -0.62472,-3.74826 -2.42298,-8.78044 -2.42298,-8.78044 z"
               id="path2180"
               transform="matrix(3.653849,0,0,-3.653849,0,2013.2708)"
               sodipodi:nodetypes="czcszc"
               inkscape:connector-curvature="0" />
          </g>
        </g>
        <path
           style="fill:#ffffff;fill-opacity:1;fill-rule:evenodd;stroke:#000000;stroke-width:1.04141939px;stroke-linecap:butt;stroke-linejoin:miter;stroke-opacity:1"
           d="m 355.07511,229.87612 c -0.91055,-4.05951 -11.91296,3.49042 -12.06471,7.89142 -0.15175,4.40096 10.69531,12.95377 11.53357,9.10543 0.83466,-3.83186 1.435,-12.96715 0.53114,-16.99685 z"
           id="path4122"
           sodipodi:nodetypes="czzz"
           inkscape:connector-curvature="0" />
      </g>
    </g>
  </g>
</svg>
