<?xml version="1.0" encoding="UTF-8" standalone="no"?>
<!-- Created with Inkscape (http://www.inkscape.org/) -->
<svg xmlns:dc="http://purl.org/dc/elements/1.1/" xmlns:cc="http://web.resource.org/cc/" xmlns:rdf="http://www.w3.org/1999/02/22-rdf-syntax-ns#" xmlns:svg="http://www.w3.org/2000/svg" xmlns="http://www.w3.org/2000/svg" xmlns:xlink="http://www.w3.org/1999/xlink" xmlns:sodipodi="http://inkscape.sourceforge.net/DTD/sodipodi-0.dtd" xmlns:inkscape="http://www.inkscape.org/namespaces/inkscape" width="128" height="128" id="svg2" sodipodi:version="0.32" inkscape:version="0.43" version="1.0" sodipodi:docbase="/home/mszulecki/Desktop" sodipodi:docname="d-5.svg" inkscape:export-filename="/home/mszulecki/Desktop/d-5.png" inkscape:export-xdpi="90" inkscape:export-ydpi="90">
  <defs id="defs4">
    <linearGradient id="linearGradient3482">
      <stop style="stop-color:#000000;stop-opacity:0.19791667;" offset="0" id="stop3484"/>
      <stop style="stop-color:#000000;stop-opacity:0.82291669;" offset="1" id="stop3486"/>
    </linearGradient>
    <linearGradient id="linearGradient3456">
      <stop style="stop-color:#ffffff;stop-opacity:1;" offset="0" id="stop3458"/>
      <stop style="stop-color:#ffffff;stop-opacity:0.33333334;" offset="1" id="stop3460"/>
    </linearGradient>
    <linearGradient id="linearGradient3420">
      <stop style="stop-color:#f2f2f0;stop-opacity:0.13541667;" offset="0" id="stop3430"/>
      <stop style="stop-color:#eeeeec;stop-opacity:0.39583334;" offset="1" id="stop3424"/>
    </linearGradient>
    <linearGradient id="linearGradient3360">
      <stop style="stop-color:#eeeeec;stop-opacity:1;" offset="0" id="stop3362"/>
      <stop style="stop-color:#eeeeec;stop-opacity:0;" offset="1" id="stop3364"/>
    </linearGradient>
    <linearGradient id="linearGradient3307">
      <stop style="stop-color:#a5d8ff;stop-opacity:1;" offset="0" id="stop3309"/>
      <stop style="stop-color:#003845;stop-opacity:1;" offset="1" id="stop3311"/>
    </linearGradient>
    <linearGradient id="linearGradient3299">
      <stop style="stop-color:#ffffff;stop-opacity:1;" offset="0" id="stop3301"/>
      <stop style="stop-color:#979797;stop-opacity:0.57291669;" offset="1" id="stop3303"/>
    </linearGradient>
    <linearGradient inkscape:collect="always" xlink:href="#linearGradient3420" id="linearGradient3426" x1="27.247862" y1="33.562527" x2="44.49588" y2="47.030663" gradientUnits="userSpaceOnUse" spreadMethod="reflect" gradientTransform="matrix(1,0,0,0.991763,-0.677924,0.501242)"/>
    <linearGradient inkscape:collect="always" xlink:href="#linearGradient3456" id="linearGradient3462" x1="24.48222" y1="30.993589" x2="104.02448" y2="90.718597" gradientUnits="userSpaceOnUse" gradientTransform="matrix(0.99719,0,0,0.988716,-0.49737,0.686728)"/>
    <linearGradient inkscape:collect="always" xlink:href="#linearGradient3482" id="linearGradient3488" x1="49.344894" y1="57.756798" x2="79.688202" y2="83.106018" gradientUnits="userSpaceOnUse"/>
    <linearGradient inkscape:collect="always" xlink:href="#linearGradient3420" id="linearGradient2213" gradientUnits="userSpaceOnUse" gradientTransform="matrix(1,0,0,-0.991763,-0.677924,121.0142)" spreadMethod="reflect" x1="27.247862" y1="33.562527" x2="44.49588" y2="47.030663"/>
    <linearGradient inkscape:collect="always" xlink:href="#linearGradient3420" id="linearGradient2232" gradientUnits="userSpaceOnUse" gradientTransform="matrix(1,0,0,-0.991763,-0.677924,121.0142)" spreadMethod="reflect" x1="27.247862" y1="33.562527" x2="44.49588" y2="47.030663"/>
  </defs>
  <sodipodi:namedview id="base" pagecolor="#ffffff" bordercolor="#666666" borderopacity="1.0" inkscape:pageopacity="0.0" inkscape:pageshadow="2" inkscape:zoom="6.03125" inkscape:cx="64" inkscape:cy="64" inkscape:document-units="px" inkscape:current-layer="g2225" showgrid="false" inkscape:showpageshadow="true" showborder="true" fill="#eeeeec" inkscape:window-width="1269" inkscape:window-height="945" inkscape:window-x="6" inkscape:window-y="47"/>
  <metadata id="metadata7">
    <rdf:RDF>
      <cc:Work rdf:about="">
        <dc:format>image/svg+xml</dc:format>
        <dc:type rdf:resource="http://purl.org/dc/dcmitype/StillImage"/>
      </cc:Work>
    </rdf:RDF>
  </metadata>
  <g inkscape:label="Layer 1" inkscape:groupmode="layer" id="layer1">
    <g id="g2225" transform="matrix(1.475092,0,0,1.475092,-30.36508,-28.63879)" style="display:inline">
      <rect rx="7.6942425" ry="8.5425425" y="33.483997" x="25.996332" height="60.167591" width="80.581573" id="rect3466" style="opacity:1;fill:#2e3436;fill-opacity:0.2745098;fill-rule:nonzero;stroke:none;stroke-width:1.3558476;stroke-linecap:round;stroke-linejoin:round;stroke-miterlimit:4;stroke-dasharray:none;stroke-opacity:1"/>
      <rect style="opacity:1;fill:#a40000;fill-opacity:1;fill-rule:nonzero;stroke:none;stroke-width:1.3558476;stroke-linecap:round;stroke-linejoin:round;stroke-miterlimit:4;stroke-dasharray:none;stroke-opacity:1" id="rect3297" width="80.581573" height="60.167591" x="23.284639" y="30.772299" ry="8.5425425" rx="7.6942425"/>
      <rect style="opacity:1;fill:url(#linearGradient3426);fill-opacity:1;fill-rule:nonzero;stroke:none;stroke-width:1.31621397;stroke-linecap:round;stroke-linejoin:round;stroke-miterlimit:4;stroke-dasharray:none;stroke-opacity:1" id="rect3408" width="74.010971" height="54.137524" x="26.569939" y="33.787331" ry="5.6200938" rx="5.2214007"/>
      <path style="font-size:64px;font-style:normal;font-variant:normal;font-weight:normal;font-stretch:normal;text-align:start;line-height:125%;writing-mode:lr-tb;text-anchor:start;fill:#eeeeec;fill-opacity:1;stroke:none;stroke-width:3.38999915;stroke-linecap:round;stroke-linejoin:round;stroke-miterlimit:4;stroke-dasharray:none;stroke-opacity:1;font-family:Gill Sans MT" d="M 32.333318,39.18804 C 31.522895,39.288231 30.887772,39.935121 30.885081,40.718048 L 30.93623,80.694565 C 30.932919,80.751585 30.932996,80.81162 30.936453,80.86863 C 30.927164,80.963534 30.927267,81.044516 30.9368,81.139394 C 30.936718,81.148902 30.936742,81.168566 30.936849,81.178074 C 30.945532,81.216447 30.966651,81.25641 30.978431,81.294057 C 30.97835,81.303563 30.97835,81.303888 30.978456,81.313396 C 30.987138,81.351773 30.987542,81.391763 30.999322,81.429407 C 30.999239,81.43892 30.999265,81.45858 30.999371,81.468089 C 31.018104,81.50687 31.039578,81.546834 31.06167,81.58404 C 31.06159,81.593552 31.061589,81.593871 31.061695,81.603381 C 31.090411,81.642674 31.132959,81.682617 31.165429,81.719273 C 31.165347,81.728782 31.165347,81.729103 31.165453,81.738612 C 31.184187,81.777391 31.205661,81.817358 31.227754,81.854564 C 31.227672,81.864074 31.227697,81.883735 31.227803,81.893243 C 31.267156,81.923454 31.310036,81.943725 31.352205,81.970423 C 31.352122,81.979932 31.352148,81.999595 31.352254,82.009104 C 31.381644,82.038696 31.403442,82.05899 31.435221,82.086345 C 31.445286,82.095963 31.466374,82.115595 31.476705,82.124965 C 31.506095,82.154554 31.527893,82.17485 31.559672,82.202205 C 31.569856,82.202276 31.570202,82.202278 31.580389,82.202175 C 31.656143,82.266026 31.742187,82.326094 31.829215,82.375874 C 31.839401,82.375944 31.860464,82.375918 31.87065,82.375814 C 31.910565,82.396333 31.953435,82.416272 31.995027,82.433653 C 32.005212,82.433723 32.005557,82.433724 32.015744,82.433624 C 32.055659,82.454143 32.098529,82.47408 32.14012,82.491463 C 32.200635,82.504075 32.264948,82.504321 32.326599,82.510529 C 32.427322,82.528699 32.534811,82.548247 32.637403,82.548756 L 32.80314,82.548514 L 48.112985,82.487448 C 52.48922,82.479605 55.420358,82.404795 57.165961,82.184106 C 57.176148,82.184177 57.197209,82.184148 57.207395,82.184044 C 58.877913,81.952007 60.647431,81.524464 62.571475,80.899735 C 65.916233,79.853952 68.882217,78.308821 71.432431,76.245085 C 73.929343,74.245823 75.86425,71.878798 77.22422,69.216054 C 78.584072,66.553378 79.269577,63.738004 79.264468,60.81934 C 79.25724,56.756662 78.028269,52.952443 75.562382,49.529963 C 73.096244,46.107336 69.730052,43.486237 65.587513,41.75037 C 61.376095,39.964923 55.884982,39.151392 49.07269,39.163563 L 32.540489,39.187737 C 32.469417,39.188132 32.402,39.179549 32.333318,39.18804 z M 41.231472,47.414036 L 48.358136,47.403617 C 51.688752,47.397684 54.058243,47.498843 55.4023,47.683424 C 56.764789,47.870601 58.257005,48.265605 59.837281,48.876043 C 61.403531,49.472825 62.768895,50.203726 63.942126,51.113525 C 63.942046,51.123035 63.94207,51.142696 63.942176,51.152208 C 67.169849,53.623026 68.691396,56.59304 68.69838,60.525343 C 68.705455,64.551763 67.235082,67.688054 64.091001,70.318319 C 63.123823,71.116633 62.048319,71.793534 60.861741,72.353782 C 59.74024,72.876083 58.277321,73.326242 56.430026,73.714089 C 54.687831,74.062592 52.042895,74.260909 48.599676,74.267068 L 41.265843,74.277792 L 41.231472,47.414036 z " id="path2242"/>
      <path sodipodi:type="arc" style="opacity:1;fill:#eeeeec;fill-opacity:1;fill-rule:nonzero;stroke:none;stroke-width:0.63157856;stroke-linecap:round;stroke-linejoin:round;stroke-miterlimit:4;stroke-dasharray:none;stroke-opacity:1" id="path2211" sodipodi:cx="83.398964" sodipodi:cy="35.647667" sodipodi:rx="5.9689121" sodipodi:ry="5.4715028" d="M 89.367876 35.647667 A 5.9689121 5.4715028 0 1 1  77.430052,35.647667 A 5.9689121 5.4715028 0 1 1  89.367876 35.647667 z" transform="matrix(1.950025,0,0,1.950025,-82.91788,-16.34322)"/>
      <rect rx="6.5702238" ry="7.3061213" y="31.981253" x="24.572311" height="57.749683" width="78.006226" id="rect3372" style="opacity:1;fill:none;fill-opacity:0.32876713;fill-rule:nonzero;stroke:url(#linearGradient3462);stroke-width:1.34628034;stroke-linecap:round;stroke-linejoin:round;stroke-miterlimit:4;stroke-dasharray:none;stroke-opacity:1"/>
      <rect rx="7.6942425" ry="8.5425425" y="30.772299" x="23.284639" height="60.167591" width="80.581573" id="rect3464" style="opacity:1;fill:none;fill-opacity:1;fill-rule:nonzero;stroke:#323232;stroke-width:1.3558476;stroke-linecap:round;stroke-linejoin:round;stroke-miterlimit:4;stroke-dasharray:none;stroke-opacity:1"/>
      <path style="fill:url(#linearGradient2232);fill-opacity:1;fill-rule:nonzero;stroke:none;stroke-width:1.31621397;stroke-linecap:round;stroke-linejoin:round;stroke-miterlimit:4;stroke-opacity:1" d="M 31.791339,87.728149 L 95.359509,87.728149 C 98.252165,87.728149 100.58091,85.221588 100.58091,82.108056 L 100.58091,73.106911 C 77.875731,64.373285 45.003847,59.694557 26.569939,59.548435 L 26.569939,82.108056 C 26.569939,85.221588 28.898683,87.728149 31.791339,87.728149 z " id="rect3477" sodipodi:nodetypes="ccccccc"/>
      <path sodipodi:type="arc" style="opacity:1;fill:#eeeeec;fill-opacity:1;fill-rule:nonzero;stroke:none;stroke-width:2.38032389;stroke-linecap:round;stroke-linejoin:round;stroke-miterlimit:4;stroke-dasharray:none;stroke-opacity:1;display:inline" id="path2222" sodipodi:cx="83.398964" sodipodi:cy="35.647667" sodipodi:rx="5.9689121" sodipodi:ry="5.4715028" d="M 89.367876 35.647667 A 5.9689121 5.4715028 0 1 1  77.430052,35.647667 A 5.9689121 5.4715028 0 1 1  89.367876 35.647667 z" transform="matrix(0.626567,0,0,0.626567,40.72046,19.11002)"/>
    </g>
  </g>
</svg>