<?xml version="1.0" encoding="UTF-8" standalone="no"?>
<svg
   xmlns="http://www.w3.org/2000/svg"
   xmlns:xlink="http://www.w3.org/1999/xlink"
   width="125"
   height="95"
   id="svg2"
   version="1.0">

   <defs>
    <filter id="f1" x="-100%" y="-100%" width="300%" height="300%">
      <feOffset result="offOut" in="SourceAlpha" dx="-1" dy="6" />
      <feGaussianBlur result="blurOut" in="offOut" stdDeviation="10" />
      <feColorMatrix result="colorOut" in="blurOut" type="matrix"
      values="0.2 0 0 0 0 0 0.2 0 0 0 0 0 0.2 0.3 0 0 0 0 0.13 0" />
      <feBlend in="SourceGraphic" in2="colorOut" mode="normal" />
    </filter>
    <filter id="f2" x="-100%" y="-100%" width="300%" height="300%">
      <feOffset result="offOut" in="SourceAlpha" dx="0" dy="0" />
      <feGaussianBlur result="blurOut" in="offOut" stdDeviation="20" />
      <feColorMatrix result="colorOut" in="blurOut" type="matrix"
      values="1.0 0 0 0 0 0 1.0 0 0 0 0 0 1.0 0.1 0 0 0 0 0.5 0" />
      <feBlend in="SourceGraphic" in2="colorOut" mode="normal" />
    </filter>
    <filter id="f3" x="-100%" y="-100%" width="300%" height="300%">
      <feOffset result="offOut" in="SourceAlpha" dx="0" dy="0" />
      <feGaussianBlur result="blurOut" in="offOut" stdDeviation="25" />
      <feColorMatrix result="colorOut" in="blurOut" type="matrix"
      values="0.0 0 0 0 0 0 0.0 0 0 0 0 0 0.0 0 0 0 0 0 0.3 0" />
      <feBlend in="SourceGraphic" in2="colorOut" mode="normal" />
    </filter>
  </defs>

    <g
       id="g2225"
       transform="matrix(1.1,0,
                         0,1.1,
                         -4,-20)"
       style="display:inline">
      <rect style="fill:#b01818" width="190" height="110" x="-50" y="0" />

      <circle cx="0" cy="369" r="310" fill="rgba(242, 242, 240, 0.22)" filter="url(#f3)"/>

    <g id="text" filter="url(#f1)">
      <path
         style="font-size:64px;font-style:normal;font-variant:normal;font-weight:normal;font-stretch:normal;text-align:start;line-height:125%;writing-mode:lr-tb;text-anchor:start;fill:#eeeeec;fill-opacity:1;stroke:none;stroke-width:3.38999915;stroke-linecap:round;stroke-linejoin:round;stroke-miterlimit:4;stroke-dasharray:none;stroke-opacity:1;font-family:Gill Sans MT"
         d="M 32.333318,39.18804 C 31.522895,39.288231 30.887772,39.935121 30.885081,40.718048 L 30.93623,80.694565 C 30.932919,80.751585 30.932996,80.81162 30.936453,80.86863 C 30.927164,80.963534 30.927267,81.044516 30.9368,81.139394 C 30.936718,81.148902 30.936742,81.168566 30.936849,81.178074 C 30.945532,81.216447 30.966651,81.25641 30.978431,81.294057 C 30.97835,81.303563 30.97835,81.303888 30.978456,81.313396 C 30.987138,81.351773 30.987542,81.391763 30.999322,81.429407 C 30.999239,81.43892 30.999265,81.45858 30.999371,81.468089 C 31.018104,81.50687 31.039578,81.546834 31.06167,81.58404 C 31.06159,81.593552 31.061589,81.593871 31.061695,81.603381 C 31.090411,81.642674 31.132959,81.682617 31.165429,81.719273 C 31.165347,81.728782 31.165347,81.729103 31.165453,81.738612 C 31.184187,81.777391 31.205661,81.817358 31.227754,81.854564 C 31.227672,81.864074 31.227697,81.883735 31.227803,81.893243 C 31.267156,81.923454 31.310036,81.943725 31.352205,81.970423 C 31.352122,81.979932 31.352148,81.999595 31.352254,82.009104 C 31.381644,82.038696 31.403442,82.05899 31.435221,82.086345 C 31.445286,82.095963 31.466374,82.115595 31.476705,82.124965 C 31.506095,82.154554 31.527893,82.17485 31.559672,82.202205 C 31.569856,82.202276 31.570202,82.202278 31.580389,82.202175 C 31.656143,82.266026 31.742187,82.326094 31.829215,82.375874 C 31.839401,82.375944 31.860464,82.375918 31.87065,82.375814 C 31.910565,82.396333 31.953435,82.416272 31.995027,82.433653 C 32.005212,82.433723 32.005557,82.433724 32.015744,82.433624 C 32.055659,82.454143 32.098529,82.47408 32.14012,82.491463 C 32.200635,82.504075 32.264948,82.504321 32.326599,82.510529 C 32.427322,82.528699 32.534811,82.548247 32.637403,82.548756 L 32.80314,82.548514 L 48.112985,82.487448 C 52.48922,82.479605 55.420358,82.404795 57.165961,82.184106 C 57.176148,82.184177 57.197209,82.184148 57.207395,82.184044 C 58.877913,81.952007 60.647431,81.524464 62.571475,80.899735 C 65.916233,79.853952 68.882217,78.308821 71.432431,76.245085 C 73.929343,74.245823 75.86425,71.878798 77.22422,69.216054 C 78.584072,66.553378 79.269577,63.738004 79.264468,60.81934 C 79.25724,56.756662 78.028269,52.952443 75.562382,49.529963 C 73.096244,46.107336 69.730052,43.486237 65.587513,41.75037 C 61.376095,39.964923 55.884982,39.151392 49.07269,39.163563 L 32.540489,39.187737 C 32.469417,39.188132 32.402,39.179549 32.333318,39.18804 z M 41.231472,47.414036 L 48.358136,47.403617 C 51.688752,47.397684 54.058243,47.498843 55.4023,47.683424 C 56.764789,47.870601 58.257005,48.265605 59.837281,48.876043 C 61.403531,49.472825 62.768895,50.203726 63.942126,51.113525 C 63.942046,51.123035 63.94207,51.142696 63.942176,51.152208 C 67.169849,53.623026 68.691396,56.59304 68.69838,60.525343 C 68.705455,64.551763 67.235082,67.688054 64.091001,70.318319 C 63.123823,71.116633 62.048319,71.793534 60.861741,72.353782 C 59.74024,72.876083 58.277321,73.326242 56.430026,73.714089 C 54.687831,74.062592 52.042895,74.260909 48.599676,74.267068 L 41.265843,74.277792 L 41.231472,47.414036 z "
         id="path2242" />
      <path
         style="opacity:1;fill:#eeeeec;fill-opacity:1;fill-rule:nonzero;stroke:none;stroke-width:0.63157856;stroke-linecap:round;stroke-linejoin:round;stroke-miterlimit:4;stroke-dasharray:none;stroke-opacity:1"
         id="path2211"
         d="M 89.367876 35.647667 A 5.9689121 5.4715028 0 1 1  77.430052,35.647667 A 5.9689121 5.4715028 0 1 1  89.367876 35.647667 z"
         transform="matrix(1.950025,0,0,1.950025,-82.91788,-16.34322)" />


      <path
         style="opacity:1;fill:#eeeeec;fill-opacity:1;fill-rule:nonzero;stroke:none;stroke-width:2.38032389;stroke-linecap:round;stroke-linejoin:round;stroke-miterlimit:4;stroke-dasharray:none;stroke-opacity:1;display:inline"
         id="path2222"
         d="M 89.367876 35.647667 A 5.9689121 5.4715028 0 1 1  77.430052,35.647667 A 5.9689121 5.4715028 0 1 1  89.367876 35.647667 z"
         transform="matrix(0.626567,0,0,0.626567,40.72046,19.11002)" />
       </g>
    </g>

    <rect style="fill:#d07070" width="230" height="4" x="-50" y="0" filter="url(#f2)"/>
    <rect style="fill:#402020" width="230" height="7" x="-50" y="89" filter="url(#f2)"/>
</svg>
