<?xml version="1.0" encoding="UTF-8" standalone="no"?>
<!-- Generator: Adobe Illustrator 19.1.0, SVG Export Plug-In . SVG Version: 6.00 Build 0)  -->

<svg
   xmlns:dc="http://purl.org/dc/elements/1.1/"
   xmlns:cc="http://creativecommons.org/ns#"
   xmlns:rdf="http://www.w3.org/1999/02/22-rdf-syntax-ns#"
   xmlns:svg="http://www.w3.org/2000/svg"
   xmlns="http://www.w3.org/2000/svg"
   xmlns:sodipodi="http://sodipodi.sourceforge.net/DTD/sodipodi-0.dtd"
   xmlns:inkscape="http://www.inkscape.org/namespaces/inkscape"
   version="1.1"
   id="Capa_1"
   x="0px"
   y="0px"
   width="560px"
   height="200px"
   viewBox="0 0 560 200"
   enable-background="new 0 0 560 200"
   xml:space="preserve"
   inkscape:version="0.91 r13725"
   sodipodi:docname="dconf_logo_2017.svg"><metadata
     id="metadata3629"><rdf:RDF><cc:Work
         rdf:about=""><dc:format>image/svg+xml</dc:format><dc:type
           rdf:resource="http://purl.org/dc/dcmitype/StillImage" /><dc:title></dc:title></cc:Work></rdf:RDF></metadata><defs
     id="defs3627" /><sodipodi:namedview
     pagecolor="#ffffff"
     bordercolor="#666666"
     borderopacity="1"
     objecttolerance="10"
     gridtolerance="10"
     guidetolerance="10"
     inkscape:pageopacity="0"
     inkscape:pageshadow="2"
     inkscape:window-width="1366"
     inkscape:window-height="744"
     id="namedview3625"
     showgrid="false"
     inkscape:zoom="2.1428571"
     inkscape:cx="360.0766"
     inkscape:cy="85.581645"
     inkscape:window-x="0"
     inkscape:window-y="24"
     inkscape:window-maximized="1"
     inkscape:current-layer="g3523" /><rect
     x="-5.2"
     y="-5.9"
     width="570.3"
     height="211.9"
     id="rect3521"
     fill="#52255F" /><g
     id="g3523"><path
       fill="#FFFFFF"
       d="M265,47.1c10.8,0,18.3,7,18.3,17.2c0,10.2-7.6,17.2-18.7,17.2h-14.5V47.1H265z M258.9,74.6h6.3   c5.4,0,9.2-4.1,9.2-10.2c0-6.1-4-10.3-9.6-10.3h-5.9V74.6z"
       id="path3525" /><path
       fill="#FFFFFF"
       d="M317.3,52.6l-5.1,6c-2.3-2.8-5.6-4.5-8.7-4.5c-5.5,0-9.6,4.3-9.6,10c0,5.8,4.1,10.1,9.6,10.1   c2.9,0,6.3-1.6,8.7-4l5.1,5.4c-3.7,3.8-9.2,6.3-14.2,6.3c-10.4,0-18.1-7.6-18.1-17.7c0-9.9,7.9-17.4,18.4-17.4   C308.6,46.8,313.9,49.1,317.3,52.6z"
       id="path3527" /><path
       fill="#FFFFFF"
       d="M347.5,68.3c0,8.2-5.8,13.6-14.5,13.6c-8.7,0-14.5-5.4-14.5-13.6s5.8-13.5,14.5-13.5   C341.7,54.7,347.5,60.1,347.5,68.3z M327.1,68.4c0,4.1,2.4,6.9,6,6.9c3.5,0,5.9-2.8,5.9-6.9c0-4.1-2.4-6.9-5.9-6.9   C329.5,61.5,327.1,64.3,327.1,68.4z"
       id="path3529" /><path
       fill="#FFFFFF"
       d="M379.2,64.8v16.7h-8.5V67.2c0-3.1-1.8-5-4.7-5c-3.1,0-5.1,2.2-5.4,5.4v14h-8.5V55h8.5v4.3   c1.9-3.1,4.9-4.7,8.9-4.7C375.3,54.6,379.2,58.6,379.2,64.8z"
       id="path3531" /><path
       fill="#FFFFFF"
       d="M395.2,54.3v1.9h6v5.6h-6v19.7h-8.4V61.8h-3.6v-5.6h3.6v-2.5c0-5.9,4.4-9.1,10.1-9.1c2.6,0,5.4,0.7,7.4,1.9   l-3,6c-0.9-0.7-2.1-1.1-3.1-1.1C396.6,51.3,395.2,52.3,395.2,54.3z"
       id="path3533" /><path
       fill="#F6B166"
       d="M437.6,55.4c0,3.3-2.5,7.3-6.1,11.2L421,77.8h18.7v3.7h-23.7v-3.2l12.9-14c2.9-2.9,4.7-6.1,4.7-8.3   c0-3.3-2.6-5.4-6.9-5.4c-3.2,0-6.6,1.6-9.4,4.3l-1.7-3.2c3.3-3,7.5-4.8,11.6-4.8C433.5,46.9,437.6,50.3,437.6,55.4z"
       id="path3535" /><path
       fill="#F6B166"
       d="M473.3,64.3c0,11.1-5.1,17.3-14.2,17.3c-9.2,0-14.2-6.2-14.2-17.3c0-11.1,5.1-17.3,14.2-17.3   C468.2,47,473.3,53.2,473.3,64.3z M448.8,64.3c0,9.3,3.5,14,10.2,14c6.7,0,10.2-4.7,10.2-14c0-9.4-3.5-14-10.2-14   C452.3,50.3,448.8,55,448.8,64.3z"
       id="path3537" /><path
       fill="#F6B166"
       d="M483.7,81.6V50.8h-7v-3.7h10.9v34.5H483.7z"
       id="path3539" /><path
       fill="#FFFFFF"
       d="M263.2,102c5.8,0,9.3,2.7,9.3,7.2c0,3.4-1.9,5.8-5.3,6.5c4.1,0.6,6.6,3.3,6.6,7.3c0,4.9-3.9,7.8-10.3,7.8   h-12.3V102H263.2z M254.3,114.4h8.7c3.9,0,6.1-1.7,6.1-4.7c0-2.9-2.3-4.6-6.1-4.6h-8.7V114.4z M254.3,127.6h8.7   c4.7,0,7.4-1.8,7.4-5.1c0-3.1-2.7-5-7.4-5h-8.7V127.6z"
       id="path3543" /><path
       fill="#FFFFFF"
       d="M298.6,121.2H281c0.6,4.2,3.7,6.9,7.8,6.9c2.7,0,5-0.9,6.7-2.7l1.8,1.9c-2.1,2.3-5.1,3.6-8.7,3.6   c-6.4,0-10.8-4.5-10.8-10.9s4.4-10.9,10.7-10.9C295.5,109,299,113.8,298.6,121.2z M295.8,118.5c-0.2-4.1-3-6.8-7.2-6.8   c-4.1,0-7.1,2.7-7.6,6.8H295.8z"
       id="path3545" /><path
       fill="#FFFFFF"
       d="M307.3,113.9c1.4-3.2,4.1-4.9,7.8-4.9v3.2c-4.6-0.1-7.4,2.8-7.8,7v11.5h-3.2v-21.6h3.2V113.9z"
       id="path3547" /><path
       fill="#FFFFFF"
       d="M319.6,130.7v-30.5h3.2v30.5H319.6z"
       id="path3549" /><path
       fill="#FFFFFF"
       d="M334.5,102.9c0,1.3-0.9,2.2-2.1,2.2c-1.2,0-2.1-0.9-2.1-2.2s0.9-2.2,2.1-2.2   C333.6,100.7,334.5,101.6,334.5,102.9z M330.8,130.7v-21.6h3.2v21.6H330.8z"
       id="path3551" /><path
       fill="#FFFFFF"
       d="M361.5,117.4v13.3h-3.2v-12.5c0-3.8-2.3-6.1-6.1-6.1c-4.3,0-6.9,2.8-7.3,6.9v11.6h-3.2v-21.6h3.2v4.8   c1.5-3.3,4.4-4.8,8.4-4.9C358.5,109,361.5,112.2,361.5,117.4z"
       id="path3553" /><rect
       x="251.1"
       y="157.4"
       fill="#F6B166"
       width="34.8"
       height="9.8"
       id="rect3555" /><g
       id="g3557"><g
         id="g3559"><path
           fill="#FAC76B"
           d="M134.9,53.2C134.9,53.2,134.9,53.2,134.9,53.2l-0.3,0.1l0,0l0,0L69.8,89c-0.7,0.4-1,1.3-0.6,2.1     s1.3,1,2.1,0.6L92.5,80c0.7-0.4,1.7-0.1,2.1,0.6c0.4,0.7,0.1,1.7-0.6,2.1l-17.8,9.8c-0.7,0.4-1,1.3-0.6,2.1     c0.4,0.7,1.3,1,2.1,0.6l10.3-5.7c0.7-0.4,1.7-0.1,2.1,0.6c0.4,0.7,0.1,1.7-0.6,2.1l-1.7,1c-0.7,0.4-1,1.3-0.6,2.1s1.3,1,2.1,0.6     l7.6-4.2c0.7-0.4,1.7-0.1,2.1,0.6c0.4,0.7,0.1,1.7-0.6,2.1l-18.3,10.1c-0.7,0.4-1,1.3-0.6,2.1c0.4,0.7,1.3,1,2.1,0.6l10.9-6     c-0.1,0-0.1,0.1-0.2,0.1c0.7-0.3,1.5,0,1.9,0.7c0.4,0.7,0.2,1.5-0.4,2c0.1,0,0.1-0.1,0.2-0.1L89,106c-0.7,0.4-1,1.3-0.6,2.1     s1.3,1,2.1,0.6l11-6c0.7-0.4,1.7-0.1,2.1,0.6c0.4,0.7,0.1,1.7-0.6,2.1l-12.9,7.1c-0.7,0.4-1,1.3-0.6,2.1c0.4,0.7,1.3,1,2.1,0.6     l10.1-5.5c0.7-0.4,1.7-0.1,2.1,0.6c0.4,0.7,0.1,1.7-0.6,2.1l-20,11c-0.7,0.4-1,1.3-0.6,2.1c0.4,0.7,1.3,1,2.1,0.6l10.8-6     c0.7-0.4,1.7-0.1,2.1,0.6c0.4,0.7,0.1,1.7-0.6,2.1l-5.2,2.9c-0.7,0.4-1,1.3-0.6,2.1s1.3,1,2.1,0.6l9.1-5c0.7-0.4,1.7-0.1,2.1,0.6     c0.4,0.7,0.1,1.7-0.6,2.1L91.8,132c-0.7,0.4-1,1.3-0.6,2.1c0.4,0.7,1.3,1,2.1,0.6l17.1-9.4c0.7-0.4,1.7-0.1,2.1,0.6     c0.4,0.7,0.1,1.7-0.6,2.1l-13.7,7.5c-0.7,0.4-1,1.3-0.6,2.1c0.4,0.7,1.3,1,2.1,0.6l17.3-9.5c0.7-0.4,1.7-0.1,2.1,0.6     c0.4,0.7,0.1,1.7-0.6,2.1l-6.9,3.8c-0.7,0.4-1,1.3-0.6,2.1c0.4,0.7,1.3,1,2.1,0.6l3.7-2c0.7-0.4,1.7-0.1,2.1,0.6     c0.4,0.7,0.1,1.7-0.6,2.1l-14.6,8.1c-0.7,0.4-1,1.3-0.6,2.1c0.4,0.7,1.3,1,2.1,0.6l10.8-5.9c0.7-0.4,1.7-0.1,2.1,0.6     c0.4,0.7,0.1,1.7-0.6,2.1l-13.3,7.3c-0.7,0.4-1,1.3-0.6,2.1c0.4,0.7,1.3,1,2.1,0.6l18.1-10c0.7-0.4,1.7-0.1,2.1,0.6     c0.4,0.7,0.1,1.7-0.6,2.1l-17.2,9.5c-0.7,0.4-1,1.3-0.6,2.1c0.4,0.7,1.3,1,2.1,0.6l13.7-7.5c0.7-0.4,1.7-0.1,2.1,0.6     c0.4,0.7,0.1,1.7-0.6,2.1l-5.4,2.9c-0.7,0.4-1,1.3-0.6,2.1c0.4,0.7,1.3,1,2.1,0.6l22.3-12.3c0.7-0.4,1.7-0.1,2.1,0.6     c0.4,0.7,0.1,1.7-0.6,2.1l-26.7,14.7c-0.7,0.4-1,1.3-0.6,2.1c0.4,0.7,1.3,1,2.1,0.6l17.8-9.8c0.7-0.4,1.7-0.1,2.1,0.6     c0.4,0.7,0.1,1.7-0.6,2.1l-5.8,3.2c-0.7,0.4-1,1.3-0.6,2.1c0.4,0.7,1.3,1,2.1,0.6l46.5-25.6c0.1-0.1,0.2-0.1,0.3-0.2     c0.7-0.3,1.3-0.7,2-1c24.1-13.3,32.9-43.6,19.6-67.7C189.1,48.9,159,40.1,134.9,53.2z M135.6,147.6c0.4,0.7,0.1,1.6-0.6,2l0,0     l-2.3,1.3l0,0c-0.7,0.4-1.6,0.1-2.1-0.6c-0.4-0.7-0.1-1.6,0.6-2l2.3-1.3C134.2,146.6,135.1,146.9,135.6,147.6z M139.5,145.4     c0.4,0.7,0.1,1.6-0.6,2.1c-0.7,0.4-1.6,0.1-2-0.6c-0.4-0.7-0.1-1.6,0.6-2.1C138.2,144.4,139.1,144.7,139.5,145.4z M101,97.7     c0.4,0.7,0.1,1.6-0.6,2c-0.7,0.4-1.6,0.1-2.1-0.6c-0.4-0.7-0.1-1.6,0.6-2C99.7,96.7,100.6,96.9,101,97.7z M104.2,82.1     c0.4,0.7,0.1,1.6-0.6,2.1l0,0l0,0l-2.3,1.3l0,0l0,0c-0.7,0.4-1.6,0.1-2.1-0.6c-0.4-0.7-0.1-1.6,0.6-2.1l2.3-1.3     C102.9,81.1,103.8,81.4,104.2,82.1z"
           id="path3561" /><circle
           fill="#FAC76B"
           cx="94.6"
           cy="139.2"
           r="1.5"
           id="circle3563" /><circle
           fill="#FAC76B"
           cx="72.7"
           cy="99.5"
           r="1.5"
           id="circle3565" /><circle
           fill="#FAC76B"
           cx="90.6"
           cy="155.1"
           r="1.5"
           id="circle3567" /><circle
           fill="#FAC76B"
           cx="62.4"
           cy="122.4"
           r="1.5"
           id="circle3569" /><path
           fill="#FAC76B"
           d="M70.9,119.4L70.9,119.4C70.9,119.4,70.9,119.4,70.9,119.4c-0.8,0.4-1,1.4-0.6,2.1c0.4,0.7,1.3,1,2,0.6     l0,0l8-4.4l0,0c0.7-0.4,1-1.3,0.6-2c-0.4-0.7-1.3-1-2-0.6L70.9,119.4z"
           id="path3571" /><path
           fill="#FAC76B"
           d="M71.5,136.4L71.5,136.4C71.5,136.4,71.5,136.4,71.5,136.4c-0.8,0.4-1,1.4-0.6,2.1c0.4,0.7,1.3,1,2,0.6     l0,0l8-4.4l0,0c0.7-0.4,1-1.3,0.6-2.1c-0.4-0.7-1.3-1-2.1-0.6L71.5,136.4z"
           id="path3573" /><path
           fill="#FAC76B"
           d="M76.3,116.5L76.3,116.5c0.7-0.4,1-1.3,0.6-2.1c-0.4-0.7-1.3-1-2-0.6l-8,4.4l0,0c0,0,0,0,0,0     c-0.7,0.4-1,1.3-0.5,2.1c0.4,0.7,1.3,1,2,0.6l0,0L76.3,116.5z"
           id="path3575" /><circle
           fill="#FAC76B"
           cx="91.4"
           cy="175.4"
           r="1.5"
           id="circle3577" /><path
           fill="#FAC76B"
           d="M96.9,174.1L96.9,174.1C96.9,174.1,96.9,174.1,96.9,174.1c-0.8,0.4-1,1.4-0.6,2.1c0.4,0.7,1.3,1,2,0.6     l0,0l8-4.4l0,0c0.7-0.4,1-1.3,0.6-2c-0.4-0.7-1.3-1-2.1-0.6L96.9,174.1z"
           id="path3579" /><path
           fill="#FAC76B"
           d="M99.6,169.2L99.6,169.2C99.6,169.2,99.6,169.2,99.6,169.2c-0.8,0.4-1,1.4-0.6,2.1c0.4,0.7,1.3,1,2,0.6     l0,0l8-4.4l0,0c0.7-0.4,1-1.3,0.6-2.1c-0.4-0.7-1.3-1-2.1-0.6L99.6,169.2z"
           id="path3581" /><path
           fill="#FAC76B"
           d="M88.4,147.8l-34.1,18.8c-0.7,0.4-1,1.3-0.6,2.1s1.3,1,2.1,0.6l10.8-5.9c0,0-0.1,0-0.1,0.1     c0.4-0.1,1,0.3,1.4,0.9c0.4,0.7,0.4,1.4,0,1.7c0,0,0.1,0,0.1,0l13.4-7.4l0,0c0,0,0,0-0.1,0c-0.7,0.4-1.6,0.1-2-0.6     c-0.4-0.7-0.1-1.6,0.6-2c0,0,0,0,0.1,0l0,0l9.6-5.3c0.1,0,0.2-0.1,0.3-0.1c0.7-0.4,1-1.3,0.6-2C90,147.7,89.1,147.4,88.4,147.8     L88.4,147.8z"
           id="path3583" /><path
           fill="#FAC76B"
           d="M62.9,170.4c0.4,0.7,1.2,1.1,1.8,0.7l22.2-12.2l0,0c0.7-0.4,1-1.3,0.6-2c-0.4-0.7-1.3-1-2.1-0.6     c-0.1,0.1-0.2,0.1-0.3,0.2l-3.7,2.1l-18.2,10C62.6,168.8,62.4,169.7,62.9,170.4z"
           id="path3585" /><path
           fill="#FAC76B"
           d="M38.3,121.9c0.4,0.7,1.4,1,2.2,0.5L70,106.1l0,0c0.7-0.4,1-1.3,0.6-2s-1.3-1-2-0.6     c-0.1,0.1-0.2,0.1-0.3,0.2l-17.2,9.5L39,119.8C38.2,120.2,37.9,121.1,38.3,121.9z"
           id="path3587" /><path
           fill="#FAC76B"
           d="M63,99.7l-17.7,9.8c-0.4,0.2-0.4,1,0,1.7c0.4,0.7,1,1.2,1.4,0.9l2.9-1.6l14.5-8c0.1,0,0.2-0.1,0.3-0.1     c0.7-0.4,1-1.3,0.6-2C64.6,99.6,63.7,99.3,63,99.7L63,99.7z"
           id="path3589" /><path
           fill="#FAC76B"
           d="M51,111.5c0.4,0.7,0.4,1.4,0,1.7c0,0,0.1,0,0.1,0l13.4-7.4l0,0c0,0,0,0-0.1,0c-0.7,0.4-1.6,0.1-2-0.6     c-0.4-0.7-0.1-1.6,0.6-2.1c0,0,0,0,0.1,0l0,0l-13.4,7.4c0,0-0.1,0-0.1,0.1C50,110.4,50.6,110.8,51,111.5z"
           id="path3591" /></g><path
         fill="#A73C59"
         d="M195.3,76.4l-0.1-0.2c-11.1-20.1-35.1-27-57.6-14.6l-27.9,15.4l39.4,71.5L177,133    C199.4,120.7,206.4,96.5,195.3,76.4z M145.6,87.7l6.9-3.8c7.3-4,15.1-1.7,19.1,5.5l0.1,0.1c4,7.2,1.8,14.9-5.6,19l-6.9,3.8    L145.6,87.7z"
         id="path3593" /><path
         fill="none"
         d="M195.3,76.4l-0.1-0.2c-11.1-20.1-35.1-27-57.6-14.6l-27.9,15.4l39.4,71.5L177,133    C199.4,120.7,206.4,96.5,195.3,76.4z"
         id="path3595" /><path
         fill="#D43754"
         d="M189.5,108.3l-0.3,0.2C189.3,108.4,189.4,108.3,189.5,108.3c-0.4-0.8-0.8-1.6-1.1-2.3    c-0.2,0-0.3,0.1-0.5,0.1l0.4-0.2c-2.8-5.8-5.7-11.7-5.7-11.8c-0.2-0.2-18.5-25.3-18.8-25.3c-0.2,0-11.4-6.3-19-10.4    c-2.4,0.9-4.9,2-7.3,3.3l-10,5.5c0.2,0.6,0,1.3-0.6,1.6l-12.4,6.8c-0.7,0.4-0.9,1.2-0.5,1.8c0.4,0.7,1.2,0.9,1.8,0.5l9.1-5    c0.7-0.4,1.5-0.1,1.8,0.5c0.4,0.7,0.1,1.5-0.5,1.8l-1.5,0.8c-0.7,0.4-0.9,1.2-0.5,1.8s1.2,0.9,1.8,0.5l1.1-0.6    c0.7-0.4,1.5-0.1,1.8,0.5c0.4,0.7,0.1,1.5-0.5,1.8L117.9,86c-0.7,0.4-0.9,1.2-0.5,1.8s1.2,0.9,1.8,0.5l9.6-5.3    c-0.1,0-0.1,0.1-0.1,0.1c0.6-0.2,1.3,0,1.7,0.6c0.3,0.6,0.2,1.3-0.4,1.7c0.1,0,0.1,0,0.2-0.1l-4,2.2c-0.7,0.4-0.9,1.2-0.5,1.8    c0.4,0.7,1.2,0.9,1.8,0.5l2.5-1.4c0.7-0.4,1.5-0.1,1.8,0.5c0.4,0.7,0.1,1.5-0.5,1.8l-4.2,2.3c-0.7,0.4-0.9,1.2-0.5,1.8    s1.2,0.9,1.8,0.5l8.9-4.9c0.7-0.4,1.5-0.1,1.8,0.5c0.4,0.7,0.1,1.5-0.5,1.8l-15.2,8.4l1.3,2.4l7.1-3.9c0.7-0.4,1.5-0.1,1.8,0.5    c0.4,0.7,0.1,1.5-0.5,1.8l-4.6,2.5c-0.7,0.4-0.9,1.2-0.5,1.8s1.2,0.9,1.8,0.5l8-4.4c0.7-0.4,1.5-0.1,1.8,0.5    c0.4,0.7,0.1,1.5-0.5,1.8l-10.2,5.6c-0.1,0.1-0.2,0.1-0.2,0.2l1.2,2.3c0.1,0,0.2,0,0.3-0.1l15.1-8.3c0.7-0.4,1.5-0.1,1.8,0.5    c0.4,0.7,0.1,1.5-0.5,1.8l-12,6.6c-0.7,0.4-0.9,1.2-0.5,1.8c0.4,0.7,1.2,0.9,1.8,0.5l15.3-8.4c0.7-0.4,1.5-0.1,1.8,0.5    c0.4,0.7,0.1,1.5-0.5,1.8l-6.1,3.3c-0.7,0.4-0.9,1.2-0.5,1.8c0.4,0.7,1.2,0.9,1.8,0.5l3.3-1.8c0.7-0.4,1.5-0.1,1.8,0.5    s0.1,1.5-0.5,1.8l0,0l-12.9,7.1c-0.7,0.4-0.9,1.2-0.5,1.8s1.2,0.9,1.8,0.5l9.5-5.2c0.7-0.4,1.5-0.1,1.8,0.5s0.1,1.5-0.5,1.8    l-11.7,6.5c-0.2,0.1-0.4,0.3-0.5,0.6l1.1,1.9c0.3,0,0.5,0,0.8-0.1l4.5-2.5c0.7-0.4,1.5-0.1,1.8,0.5c0.4,0.7,0.1,1.5-0.5,1.8    l-3.8,2.1c-0.7,0.4-0.9,1.2-0.5,1.8c0.4,0.7,1.2,0.9,1.8,0.5l12-6.6c0.7-0.4,1.5-0.1,1.8,0.5c0.4,0.7,0.1,1.5-0.5,1.8l0,0    l-4.7,2.6c-0.7,0.4-0.9,1.2-0.5,1.8c0.4,0.7,1.2,0.9,1.8,0.5l5.2-2.8c0.7-0.4,1.5-0.1,1.8,0.5c0.4,0.7,0.1,1.5-0.5,1.8l-9,5    c-0.7,0.4-0.9,1.2-0.5,1.8c0.4,0.7,1.2,0.9,1.8,0.5l12.4-6.8c0.7-0.4,1.5-0.1,1.8,0.5c0.1,0.3,0.2,0.5,0.1,0.8l9.7-5.3    c7.3-4,13-9.3,16.9-15.3c-0.2-0.6-0.3-1-0.3-1S191.7,112.9,189.5,108.3z M166.1,108.5l-6.9,3.8l-13.6-24.6l6.9-3.8    c7.3-4,15.1-1.7,19.1,5.5l0.1,0.1C175.7,96.8,173.4,104.4,166.1,108.5z"
         id="path3597" /><path
         fill="#E75F69"
         d="M195.3,76.4l-0.1-0.2c-0.7-1.3-1.5-2.5-2.3-3.7l-3.5,1.9c0.7-0.4,0.9-1.2,0.5-1.8s-1.2-0.9-1.8-0.5    l3.2-1.8c-0.6-0.7-1.2-1.4-1.8-2.1l-1.4,0.8c0.6-0.3,0.8-1,0.6-1.6c-0.3-0.3-0.5-0.5-0.8-0.8c-0.4-0.1-0.8-0.1-1.1,0.1l0.8-0.4    c-10.7-10.3-26.2-13.7-41.8-8.3c-0.1,0.3-0.3,0.6-0.6,0.8l-9.2,5.1c-0.7,0.4-0.9,1.2-0.5,1.8c0.4,0.7,1.2,0.9,1.8,0.5l8.3-4.6    c0.7-0.4,1.5-0.1,1.8,0.5c0.4,0.7,0.1,1.5-0.5,1.8l-0.7,0.4c-0.7,0.4-0.9,1.2-0.5,1.8s1.2,0.9,1.8,0.5l5.1-2.8    c0.7-0.4,1.5-0.1,1.8,0.5c0.4,0.7,0.1,1.5-0.5,1.8l-8.1,4.5c-0.7,0.4-0.9,1.2-0.5,1.8c0.4,0.7,1.2,0.9,1.8,0.5l3.3-1.8    c-0.1,0-0.1,0.1-0.1,0.1c0.6-0.2,1.3,0,1.7,0.6c0.3,0.6,0.2,1.3-0.4,1.7c0.1,0,0.1,0,0.2-0.1l-5.1,2.8c-0.7,0.4-0.9,1.2-0.5,1.8    c0.4,0.7,1.2,0.9,1.8,0.5l10.9-6c0.7-0.4,1.5-0.1,1.8,0.5c0.4,0.7,0.1,1.5-0.5,1.8l-4.2,2.3c-0.7,0.4-0.9,1.2-0.5,1.8    c0.4,0.7,1.2,0.9,1.8,0.5l1.4-0.8c0.7-0.4,1.5-0.1,1.8,0.5s0.1,1.5-0.5,1.8l-7.5,4.1c-0.7,0.4-0.9,1.2-0.5,1.8    c0.4,0.7,1.2,0.9,1.8,0.5l10.2-5.6c0.7-0.4,1.5-0.1,1.8,0.5c0.4,0.7,0.1,1.5-0.5,1.8L153.7,91c-0.7,0.4-0.9,1.2-0.5,1.8    c0.4,0.7,1.2,0.9,1.8,0.5l14.1-7.8c0.7-0.4,1.5-0.1,1.8,0.5c0.4,0.7,0.1,1.5-0.5,1.8l-7.7,4.3c-0.7,0.4-0.9,1.2-0.5,1.8    c0.4,0.7,1.2,0.9,1.8,0.5l7.7-4.3c0.7-0.4,1.5-0.1,1.8,0.5c0.4,0.7,0.1,1.5-0.5,1.8l-10,5.5c-0.7,0.4-0.9,1.2-0.5,1.8    s1.2,0.9,1.8,0.5l12.3-6.7c0.7-0.4,1.5-0.1,1.8,0.5c0.4,0.7,0.1,1.5-0.5,1.8l-10,5.5c-0.7,0.4-0.9,1.2-0.5,1.8s1.2,0.9,1.8,0.5    l7.7-4.3c0.7-0.4,1.5-0.1,1.8,0.5s0.1,1.5-0.5,1.8l-6.3,3.5c-0.7,0.4-0.9,1.2-0.5,1.8s1.2,0.9,1.8,0.5l9.7-5.3    c0.7-0.4,1.5-0.1,1.8,0.5c0.4,0.7,0.1,1.5-0.5,1.8l-6.5,3.6c-0.7,0.4-0.9,1.2-0.5,1.8c0.4,0.7,1.2,0.9,1.8,0.5l7.3-4    c0.7-0.4,1.5-0.1,1.8,0.5c0.4,0.7,0.1,1.5-0.5,1.8l-14.3,7.9c-0.7,0.4-0.9,1.2-0.5,1.8c0.4,0.7,1.2,0.9,1.8,0.5l10.5-5.8    c0.7-0.4,1.5-0.1,1.8,0.5c0.4,0.7,0.1,1.5-0.5,1.8l-8.4,4.6c-0.7,0.4-0.9,1.2-0.5,1.8c0.4,0.7,1.2,0.9,1.8,0.5l2.8-1.5    c0.7-0.4,1.5-0.1,1.8,0.5c0.4,0.7,0.1,1.5-0.5,1.8l-8.9,4.9c-0.7,0.4-0.9,1.2-0.5,1.8c0.4,0.7,1.2,0.9,1.8,0.5l12.9-7.1    C201.5,111,204.1,92.4,195.3,76.4z M156.4,55.6l-8.3,4.6L156.4,55.6L156.4,55.6z"
         id="path3599" /><g
         id="g3601"><path
           fill="#F6B166"
           d="M167.1,55.9c-1.8-0.3-3.5-0.5-5.4-0.5c-0.1,0.3-0.3,0.5-0.6,0.6l-2.9,1.6c-0.7,0.4-0.9,1.2-0.5,1.8     c0.4,0.7,1.2,0.9,1.8,0.5l7.2-4C166.9,56,167,55.9,167.1,55.9z"
           id="path3603" /><path
           fill="#F6B166"
           d="M199.4,96.7l-10.8,5.9c-0.7,0.4-0.9,1.2-0.5,1.8c0.4,0.7,1.2,0.9,1.8,0.5l9.8-5.4     c0.2-0.1,0.4-0.1,0.7-0.1c0.7-7.7-0.9-15.7-5-23.1l-0.1-0.2c-6-10.8-15.6-17.8-26.8-20c0.1,0.1,0.2,0.2,0.3,0.4     c0.4,0.7,0.1,1.5-0.5,1.8l-3.4,1.9c-0.7,0.4-0.9,1.2-0.5,1.8c0.4,0.7,1.2,0.9,1.8,0.5l6.3-3.5c-0.1,0-0.1,0.1-0.1,0.1     c0.6-0.2,1.3,0,1.7,0.6c0.3,0.6,0.2,1.3-0.4,1.7c0.1,0,0.1,0,0.2-0.1L161,68.5c-0.7,0.4-0.9,1.2-0.5,1.8c0.4,0.7,1.2,0.9,1.8,0.5     l11.6-6.4c0.7-0.4,1.5-0.1,1.8,0.5c0.4,0.7,0.1,1.5-0.5,1.8l-7.2,3.9c-0.7,0.4-0.9,1.2-0.5,1.8s1.2,0.9,1.8,0.5l4.4-2.4     c0.7-0.4,1.5-0.1,1.8,0.5c0.4,0.7,0.1,1.5-0.5,1.8l-2.5,1.4c-0.7,0.4-0.9,1.2-0.5,1.8c0.4,0.7,1.2,0.9,1.8,0.5l5.3-2.9     c0.7-0.4,1.5-0.1,1.8,0.5s0.1,1.5-0.5,1.8l-7.2,3.9c-0.7,0.4-0.9,1.2-0.5,1.8c0.4,0.7,1.2,0.9,1.8,0.5l9.7-5.4     c0.7-0.4,1.5-0.1,1.8,0.5c0.4,0.7,0.1,1.5-0.5,1.8l-5.2,2.9c-0.7,0.4-0.9,1.2-0.5,1.8c0.4,0.7,1.2,0.9,1.8,0.5l5.2-2.9     c0.7-0.4,1.5-0.1,1.8,0.5s0.1,1.5-0.5,1.8l-1.6,0.9c-0.7,0.4-0.9,1.2-0.5,1.8c0.4,0.7,1.2,0.9,1.8,0.5l3.9-2.1     c0.7-0.4,1.5-0.1,1.8,0.5c0.4,0.7,0.1,1.5-0.5,1.8l-7.5,4.2c-0.7,0.4-0.9,1.2-0.5,1.8c0.4,0.7,1.2,0.9,1.8,0.5l5.2-2.9     c0.7-0.4,1.5-0.1,1.8,0.5c0.4,0.7,0.1,1.5-0.5,1.8l-2.1,1.1c-0.7,0.4-0.9,1.2-0.5,1.8c0.4,0.7,1.2,0.9,1.8,0.5l5.4-3     c0.7-0.4,1.5-0.1,1.8,0.5C200.3,95.5,200,96.3,199.4,96.7z"
           id="path3605" /><path
           fill="#F6B166"
           d="M155,56.4l1.5-0.8c-1.1,0.1-2.1,0.2-3.2,0.4C153.7,56.5,154.4,56.7,155,56.4z"
           id="path3607" /><path
           fill="#F6B166"
           d="M196,104.7c-0.7,0.4-0.9,1.2-0.5,1.8c0.4,0.7,1.2,0.9,1.8,0.5l1.7-1c0,0,0,0,0.1,0     c0.3-1.2,0.6-2.3,0.8-3.5L196,104.7z"
           id="path3609" /><path
           fill="#F6B166"
           d="M195.7,111.1c-0.7,0.4-0.9,1.2-0.5,1.8c0.2,0.4,0.7,0.7,1.1,0.7c0.6-1.2,1.2-2.5,1.6-3.8L195.7,111.1z"
           id="path3611" /></g><g
         id="g3613"><path
           fill="#A73C59"
           d="M168,131c-0.4-0.7-1.2-0.9-1.9-0.5l-1.9,1.1c-0.7,0.4-0.9,1.2-0.5,1.9c0.4,0.7,1.2,0.9,1.9,0.5l1.9-1.1     C168.1,132.5,168.3,131.7,168,131z"
           id="path3615" /><circle
           fill="#A73C59"
           cx="135.9"
           cy="99.3"
           r="1.4"
           id="circle3617" /><circle
           fill="#A73C59"
           cx="155.7"
           cy="107.1"
           r="1.4"
           id="circle3619" /><path
           fill="#A73C59"
           d="M130.6,69.7l-1.9,1.1c-0.7,0.4-0.9,1.2-0.5,1.9s1.2,0.9,1.9,0.5l1.9-1.1c0.7-0.4,0.9-1.2,0.5-1.9     C132,69.6,131.2,69.4,130.6,69.7z"
           id="path3621" /></g><path
         fill="#FAC76B"
         d="M145.6,87.7l6.9-3.8c7.3-4,15.1-1.7,19.1,5.5l0.1,0.1c4,7.2,1.8,14.9-5.6,19l-6.9,3.8L145.6,87.7z"
         id="path3623" /></g></g><path
     inkscape:connector-curvature="0"
     style="fill:#f6b166"
     d="m 501.84494,81.447436 8.69405,-30.717463 -15.74454,-0.07102 -0.006,-3.699995 21.87192,-0.347853 -10.91534,34.829937 -3.89999,0.0064 z"
     id="path3539-3"
     sodipodi:nodetypes="cccccccc" /></svg>