<?xml version="1.0" encoding="UTF-8" standalone="no"?>
<!DOCTYPE svg PUBLIC "-//W3C//DTD SVG 1.1//EN"
 "http://www.w3.org/Graphics/SVG/1.1/DTD/svg11.dtd">
<!-- Generated by graphviz version 2.43.0 (0)
 -->
<!-- Title: Declaration Pages: 1 -->
<svg width="398pt" height="152pt"
 viewBox="0.00 0.00 397.57 152.00" xmlns="http://www.w3.org/2000/svg" xmlns:xlink="http://www.w3.org/1999/xlink">
<g id="graph0" class="graph" transform="scale(1 1) rotate(0) translate(4 148)">
<title>Declaration</title>
<polygon fill="white" stroke="transparent" points="-4,4 -4,-148 393.57,-148 393.57,4 -4,4"/>
<!-- Declaration -->
<g id="node1" class="node">
<title>Declaration</title>
<ellipse fill="none" stroke="black" cx="64.34" cy="-72" rx="64.19" ry="18"/>
<text text-anchor="middle" x="64.34" y="-68.3" font-family="Times,serif" font-size="14.00">Declaration</text>
</g>
<!-- VarDeclarations -->
<g id="node2" class="node">
<title>VarDeclarations</title>
<ellipse fill="none" stroke="black" cx="277.13" cy="-126" rx="85.29" ry="18"/>
<text text-anchor="middle" x="277.13" y="-122.3" font-family="Times,serif" font-size="14.00">VarDeclarations</text>
</g>
<!-- Declaration&#45;&gt;VarDeclarations -->
<g id="edge1" class="edge">
<title>Declaration&#45;&gt;VarDeclarations</title>
<path fill="none" stroke="black" d="M110.77,-84.63C127.67,-89.25 147.03,-94.46 164.69,-99 179.18,-102.72 194.77,-106.59 209.56,-110.19"/>
<polygon fill="black" stroke="black" points="209.1,-113.68 219.65,-112.64 210.75,-106.88 209.1,-113.68"/>
</g>
<!-- FuncDeclaration -->
<g id="node3" class="node">
<title>FuncDeclaration</title>
<ellipse fill="none" stroke="black" cx="277.13" cy="-72" rx="87.18" ry="18"/>
<text text-anchor="middle" x="277.13" y="-68.3" font-family="Times,serif" font-size="14.00">FuncDeclaration</text>
</g>
<!-- Declaration&#45;&gt;FuncDeclaration -->
<g id="edge2" class="edge">
<title>Declaration&#45;&gt;FuncDeclaration</title>
<path fill="none" stroke="black" d="M128.87,-72C144.88,-72 162.43,-72 179.66,-72"/>
<polygon fill="black" stroke="black" points="179.75,-75.5 189.75,-72 179.75,-68.5 179.75,-75.5"/>
</g>
<!-- AggregateDeclaration -->
<g id="node4" class="node">
<title>AggregateDeclaration</title>
<ellipse fill="none" stroke="black" cx="277.13" cy="-18" rx="112.38" ry="18"/>
<text text-anchor="middle" x="277.13" y="-14.3" font-family="Times,serif" font-size="14.00">AggregateDeclaration</text>
</g>
<!-- Declaration&#45;&gt;AggregateDeclaration -->
<g id="edge3" class="edge">
<title>Declaration&#45;&gt;AggregateDeclaration</title>
<path fill="none" stroke="black" d="M110.77,-59.37C127.67,-54.75 147.03,-49.54 164.69,-45 177.21,-41.78 190.55,-38.46 203.49,-35.29"/>
<polygon fill="black" stroke="black" points="204.4,-38.67 213.28,-32.9 202.74,-31.87 204.4,-38.67"/>
</g>
</g>
</svg>
