<?xml version="1.0" encoding="UTF-8" standalone="no" ?>
<!-- This version is meant to be centered and cropped left/right as needed. -->
<svg
    version="1.0"
    xmlns="http://www.w3.org/2000/svg"
    xmlns:xlink="http://www.w3.org/1999/xlink"
    height="38"
    viewBox="0 0 481 89"
>
    <defs>
        <linearGradient
            x1="66"
            y1="50"
            x2="60"
            y2="99"
            id="gradient"
            gradientUnits="userSpaceOnUse">
            <stop style="stop-color: white; stop-opacity: 1" offset="0" />
            <stop style="stop-color: white; stop-opacity: 0" offset="1" />
        </linearGradient>
    </defs>

    <!-- background -->
    <rect width="100%" height="100%" style="fill: #C25454; fill: #B03931" />

    <g transform="translate(181,0)">
        <!-- planet (originally a shiny effect, I guess) -->
        <ellipse cx="-4.5" cy="308" rx="310" ry="266"
            style="fill: url(#gradient); opacity: 0.3;"/>

        <!-- bigger moon -->
        <ellipse style="fill: #fff" rx="12" ry="11"
            transform="translate(83.2177260627967172,32.7927689136800591)
                scale(1.43078119731816044417)" />

        <!-- smaller moon -->
        <ellipse style="fill: #fff" rx="12" ry="11"
            transform="translate(102.782334293845546096,15.497388861356540388)
                scale(0.45972758424125220703)" />

        <!-- D -->
        <path
            style="fill: #fff"
            transform="translate(-34.36508,-45.63879) scale(1.475092)"
            d="M 32.333318,39.18804

            C 31.522895,39.288231 30.887772,39.935121 30.885081,40.718048

            L 30.93623,80.694565

            C 30.93623,81.3 31.1,82.548514 32.80314,82.548514

            L 48.112985,82.487448

            C 52.48922,82.479605 55.420358,82.404795 57.165961,82.184106
            C 57.176148,82.184177 57.197209,82.184148 57.207395,82.184044
            C 58.877913,81.952007 60.647431,81.524464 62.571475,80.899735
            C 65.916233,79.853952 68.882217,78.308821 71.432431,76.245085
            C 73.929343,74.245823 75.86425,71.878798 77.22422,69.216054
            C 78.584072,66.553378 79.269577,63.738004 79.264468,60.81934
            C 79.25724,56.756662 78.028269,52.952443 75.562382,49.529963
            C 73.096244,46.107336 69.730052,43.486237 65.587513,41.75037
            C 61.376095,39.964923 55.884982,39.151392 49.07269,39.163563
            L 32.540489,39.187737
            C 32.469417,39.188132 32.402,39.179549 32.333318,39.18804
            z

            M 41.231472,47.414036
            L 48.358136,47.403617

            C 51.688752,47.397684 54.058243,47.498843 55.4023,47.683424
            C 56.764789,47.870601 58.257005,48.265605 59.837281,48.876043
            C 61.403531,49.472825 62.768895,50.203726 63.942126,51.113525
            C 67.169849,53.623026 68.691396,56.59304 68.69838,60.525343
            C 68.705455,64.551763 67.235082,67.688054 64.091001,70.318319
            C 63.123823,71.116633 62.048319,71.793534 60.861741,72.353782
            C 59.74024,72.876083 58.277321,73.326242 56.430026,73.714089
            C 54.687831,74.062592 52.042895,74.260909 48.599676,74.267068

            L 41.265843,74.277792
            L 41.231472,47.414036
            z" />
    </g>
</svg>
