<?xml version="1.0" encoding="UTF-8" standalone="no"?>
<!-- Created with Inkscape (http://www.inkscape.org/) -->

<svg
   xmlns:dc="http://purl.org/dc/elements/1.1/"
   xmlns:cc="http://creativecommons.org/ns#"
   xmlns:rdf="http://www.w3.org/1999/02/22-rdf-syntax-ns#"
   xmlns:svg="http://www.w3.org/2000/svg"
   xmlns="http://www.w3.org/2000/svg"
   xmlns:sodipodi="http://sodipodi.sourceforge.net/DTD/sodipodi-0.dtd"
   xmlns:inkscape="http://www.inkscape.org/namespaces/inkscape"
   width="192"
   height="144"
   id="svg2"
   version="1.1"
   inkscape:version="0.48.5 r10040"
   sodipodi:docname="New document 1">
  <defs
     id="defs4" />
  <sodipodi:namedview
     id="base"
     pagecolor="#ffffff"
     bordercolor="#666666"
     borderopacity="1.0"
     inkscape:pageopacity="0.0"
     inkscape:pageshadow="2"
     inkscape:zoom="1.4142136"
     inkscape:cx="74.854735"
     inkscape:cy="85.511121"
     inkscape:document-units="px"
     inkscape:current-layer="layer1"
     showgrid="true"
     showborder="true"
     fit-margin-top="0"
     fit-margin-left="0"
     fit-margin-right="0"
     fit-margin-bottom="0"
     inkscape:window-width="1101"
     inkscape:window-height="675"
     inkscape:window-x="22"
     inkscape:window-y="235"
     inkscape:window-maximized="0">
    <inkscape:grid
       type="xygrid"
       id="grid2985"
       empspacing="10"
       dotted="false"
       visible="true"
       enabled="true"
       snapvisiblegridlinesonly="false"
       spacingx="16px"
       spacingy="16px"
       originx="192px"
       originy="-192px" />
  </sodipodi:namedview>
  <metadata
     id="metadata7">
    <rdf:RDF>
      <cc:Work
         rdf:about="">
        <dc:format>image/svg+xml</dc:format>
        <dc:type
           rdf:resource="http://purl.org/dc/dcmitype/StillImage" />
        <dc:title></dc:title>
      </cc:Work>
    </rdf:RDF>
  </metadata>
  <g
     inkscape:label="Layer 1"
     inkscape:groupmode="layer"
     id="layer1"
     transform="translate(192,-716.36218)">
    <rect
       style="fill:#c4473a;fill-opacity:1;stroke:none"
       id="rect2987"
       width="192"
       height="144"
       x="-192"
       y="716.36218"
       ry="4"
       rx="4" />
    <path
       style="font-size:40px;font-style:normal;font-variant:normal;font-weight:bold;font-stretch:normal;line-height:125%;letter-spacing:0px;word-spacing:0px;fill:#ffffff;fill-opacity:1;stroke:none;font-family:Raleway;-inkscape-font-specification:Raleway Bold"
       d="m -50,737.36218 c -2.209139,0 -4,1.79086 -4,4 0,2.20914 1.790861,4 4,4 2.209139,0 4,-1.79086 4,-4 0,-2.20914 -1.790861,-4 -4,-4 z m -96,6 0,96 34.875,0 c 14.57177,-0.18862 26.06587,-4.56752 34.46875,-13.15625 8.402725,-8.58869 12.703077,-20.24477 12.875,-34.96875 -0.0048,-5.69271 -0.700831,-10.98909 -2.09375,-15.875 8.778131,-0.0682 15.875,-7.20578 15.875,-16 0,-8.83656 -7.163444,-16 -16,-16 -6.479495,0 -12.046748,3.86768 -14.5625,9.40625 -7.62037,-5.98728 -17.80974,-9.13154 -30.5625,-9.40625 l -34.875,0 z m 18.65625,16.375 16.21875,0 c 9.11544,0.15516 16.1385,3.06583 21.0625,8.78125 4.92387,5.71555 7.412339,13.30191 7.46875,22.71875 -0.03952,9.25076 -2.50183,16.78584 -7.375,22.65625 -4.8733,5.87044 -11.92251,8.90222 -21.15625,9.09375 l -16.21875,0 0,-63.25 z"
       id="path3766"
       inkscape:connector-curvature="0" />
    <path
       style="fill:#161616;fill-opacity:0.10196078;stroke:none"
       d="m -1.34375,717.36218 -189.3125,142 c 0.70476,0.62263 1.63759,1 2.65625,1 l 184,0 c 2.216,0 4,-1.784 4,-4 l 0,-136 c 0,-1.19734 -0.5153692,-2.26816 -1.34375,-3 z"
       id="rect2987-7"
       inkscape:connector-curvature="0" />
  </g>
</svg>
