<?xml version="1.0" encoding="UTF-8" standalone="no"?>
<!DOCTYPE svg PUBLIC "-//W3C//DTD SVG 1.1//EN"
 "http://www.w3.org/Graphics/SVG/1.1/DTD/svg11.dtd">
<!-- Generated by graphviz version 2.43.0 (0)
 -->
<!-- Title: Expression Pages: 1 -->
<svg width="591pt" height="179pt"
 viewBox="0.00 0.00 590.85 179.00" xmlns="http://www.w3.org/2000/svg" xmlns:xlink="http://www.w3.org/1999/xlink">
<g id="graph0" class="graph" transform="scale(1 1) rotate(0) translate(4 175)">
<title>Expression</title>
<polygon fill="white" stroke="transparent" points="-4,4 -4,-175 586.85,-175 586.85,4 -4,4"/>
<!-- Expression -->
<g id="node1" class="node">
<title>Expression</title>
<ellipse fill="none" stroke="black" cx="62.39" cy="-72" rx="62.29" ry="18"/>
<text text-anchor="middle" x="62.39" y="-68.3" font-family="Times,serif" font-size="14.00">Expression</text>
</g>
<!-- PrimaryExpression -->
<g id="node2" class="node">
<title>PrimaryExpression</title>
<ellipse fill="none" stroke="black" cx="260.88" cy="-126" rx="100.18" ry="18"/>
<text text-anchor="middle" x="260.88" y="-122.3" font-family="Times,serif" font-size="14.00">PrimaryExpression</text>
</g>
<!-- Expression&#45;&gt;PrimaryExpression -->
<g id="edge1" class="edge">
<title>Expression&#45;&gt;PrimaryExpression</title>
<path fill="none" stroke="black" d="M107.99,-84.41C124.56,-89.01 143.53,-94.26 160.79,-99 171.83,-102.03 183.56,-105.24 194.94,-108.35"/>
<polygon fill="black" stroke="black" points="194.27,-111.79 204.83,-111.05 196.11,-105.04 194.27,-111.79"/>
</g>
<!-- AssignExpression -->
<g id="node3" class="node">
<title>AssignExpression</title>
<ellipse fill="none" stroke="black" cx="260.88" cy="-72" rx="92.88" ry="18"/>
<text text-anchor="middle" x="260.88" y="-68.3" font-family="Times,serif" font-size="14.00">AssignExpression</text>
</g>
<!-- Expression&#45;&gt;AssignExpression -->
<g id="edge2" class="edge">
<title>Expression&#45;&gt;AssignExpression</title>
<path fill="none" stroke="black" d="M125.02,-72C135.45,-72 146.52,-72 157.66,-72"/>
<polygon fill="black" stroke="black" points="157.89,-75.5 167.89,-72 157.89,-68.5 157.89,-75.5"/>
</g>
<!-- PostfixExpression -->
<g id="node4" class="node">
<title>PostfixExpression</title>
<ellipse fill="none" stroke="black" cx="260.88" cy="-18" rx="93.68" ry="18"/>
<text text-anchor="middle" x="260.88" y="-14.3" font-family="Times,serif" font-size="14.00">PostfixExpression</text>
</g>
<!-- Expression&#45;&gt;PostfixExpression -->
<g id="edge3" class="edge">
<title>Expression&#45;&gt;PostfixExpression</title>
<path fill="none" stroke="black" d="M107.99,-59.59C124.56,-54.99 143.53,-49.74 160.79,-45 172.27,-41.84 184.51,-38.5 196.33,-35.27"/>
<polygon fill="black" stroke="black" points="197.4,-38.61 206.13,-32.6 195.56,-31.85 197.4,-38.61"/>
</g>
<!-- Identifier -->
<g id="node5" class="node">
<title>Identifier</title>
<ellipse fill="none" stroke="black" cx="489.91" cy="-153" rx="53.89" ry="18"/>
<text text-anchor="middle" x="489.91" y="-149.3" font-family="Times,serif" font-size="14.00">Identifier</text>
</g>
<!-- PrimaryExpression&#45;&gt;Identifier -->
<g id="edge4" class="edge">
<title>PrimaryExpression&#45;&gt;Identifier</title>
<path fill="none" stroke="black" d="M344.81,-135.86C372.65,-139.17 403.15,-142.8 428.89,-145.86"/>
<polygon fill="black" stroke="black" points="428.53,-149.34 438.87,-147.05 429.36,-142.39 428.53,-149.34"/>
</g>
<!-- LiteralExpression -->
<g id="node6" class="node">
<title>LiteralExpression</title>
<ellipse fill="none" stroke="black" cx="489.91" cy="-99" rx="92.88" ry="18"/>
<text text-anchor="middle" x="489.91" y="-95.3" font-family="Times,serif" font-size="14.00">LiteralExpression</text>
</g>
<!-- PrimaryExpression&#45;&gt;LiteralExpression -->
<g id="edge5" class="edge">
<title>PrimaryExpression&#45;&gt;LiteralExpression</title>
<path fill="none" stroke="black" d="M344.81,-116.14C362.87,-113.99 382.05,-111.71 400.32,-109.54"/>
<polygon fill="black" stroke="black" points="400.85,-113 410.37,-108.34 400.02,-106.05 400.85,-113"/>
</g>
</g>
</svg>
