<svg xmlns="http://www.w3.org/2000/svg" xlink="http://www.w3.org/1999/xlink" xmlns:ev="http://www.w3.org/2001/xml-events" width="600" height="300" aria-label="A chart." style="overflow: hidden;"><defs id="defs"><clipPath id="_ABSTRACT_RENDERER_ID_0"><rect x="100" y="58" width="400" height="185"></rect></clipPath></defs><g><text text-anchor="start" x="100" y="23.7" font-family="Arial" font-size="12" font-weight="bold" stroke="none" stroke-width="0" fill="#000000">AA Benchmark Comparison (Linux/64, Core i5-2400S)</text></g><g><rect x="365" y="33" width="135" height="12" stroke="none" stroke-width="0" fill-opacity="0" fill="#ffffff"></rect><g><rect x="365" y="33" width="55" height="12" stroke="none" stroke-width="0" fill-opacity="0" fill="#ffffff"></rect><g><text text-anchor="start" x="382" y="43.2" font-family="Arial" font-size="12" stroke="none" stroke-width="0" fill="#222222">old_aa</text></g><rect x="365" y="33" width="12" height="12" stroke="none" stroke-width="0" fill="#3366cc"></rect></g><g><rect x="439" y="33" width="61" height="12" stroke="none" stroke-width="0" fill-opacity="0" fill="#ffffff"></rect><g><text text-anchor="start" x="456" y="43.2" font-family="Arial" font-size="12" stroke="none" stroke-width="0" fill="#222222">new_aa</text></g><rect x="439" y="33" width="12" height="12" stroke="none" stroke-width="0" fill="#dc3912"></rect></g></g><g><rect x="100" y="58" width="400" height="185" stroke="none" stroke-width="0" fill-opacity="0" fill="#ffffff"></rect><g clip-path="url(#_ABSTRACT_RENDERER_ID_0)"><g><rect x="100" y="242" width="400" height="1" stroke="none" stroke-width="0" fill="#cccccc"></rect><rect x="100" y="211" width="400" height="1" stroke="none" stroke-width="0" fill="#cccccc"></rect><rect x="100" y="181" width="400" height="1" stroke="none" stroke-width="0" fill="#cccccc"></rect><rect x="100" y="150" width="400" height="1" stroke="none" stroke-width="0" fill="#cccccc"></rect><rect x="100" y="119" width="400" height="1" stroke="none" stroke-width="0" fill="#cccccc"></rect><rect x="100" y="89" width="400" height="1" stroke="none" stroke-width="0" fill="#cccccc"></rect><rect x="100" y="58" width="400" height="1" stroke="none" stroke-width="0" fill="#cccccc"></rect></g><g><rect x="113" y="90" width="20" height="152" stroke="none" stroke-width="0" fill="#3366cc"></rect><rect x="179" y="90" width="20" height="152" stroke="none" stroke-width="0" fill="#3366cc"></rect><rect x="246" y="90" width="20" height="152" stroke="none" stroke-width="0" fill="#3366cc"></rect><rect x="312" y="90" width="20" height="152" stroke="none" stroke-width="0" fill="#3366cc"></rect><rect x="379" y="90" width="20" height="152" stroke="none" stroke-width="0" fill="#3366cc"></rect><rect x="445" y="90" width="20" height="152" stroke="none" stroke-width="0" fill="#3366cc"></rect><rect x="134" y="99" width="20" height="143" stroke="none" stroke-width="0" fill="#dc3912"></rect><rect x="200" y="102" width="20" height="140" stroke="none" stroke-width="0" fill="#dc3912"></rect><rect x="267" y="99" width="20" height="143" stroke="none" stroke-width="0" fill="#dc3912"></rect><rect x="333" y="127" width="20" height="115" stroke="none" stroke-width="0" fill="#dc3912"></rect><rect x="400" y="92" width="20" height="150" stroke="none" stroke-width="0" fill="#dc3912"></rect><rect x="466" y="99" width="20" height="143" stroke="none" stroke-width="0" fill="#dc3912"></rect></g><g><rect x="100" y="242" width="400" height="1" stroke="none" stroke-width="0" fill="#333333"></rect></g></g><g></g><g><g><text text-anchor="end" x="135.85" y="259.63730669589467" font-family="Arial" font-size="12" transform="rotate(-30 135.85 259.63730669589467)" stroke="none" stroke-width="0" fill="#222222">resize</text></g><g><text text-anchor="end" x="202.35" y="259.63730669589467" font-family="Arial" font-size="12" transform="rotate(-30 202.35 259.63730669589467)" stroke="none" stroke-width="0" fill="#222222">int</text></g><g><text text-anchor="end" x="268.85" y="259.63730669589467" font-family="Arial" font-size="12" transform="rotate(-30 268.85 259.63730669589467)" stroke="none" stroke-width="0" fill="#222222">string</text></g><g><text text-anchor="end" x="335.35" y="259.63730669589467" font-family="Arial" font-size="12" transform="rotate(-30 335.35 259.63730669589467)" stroke="none" stroke-width="0" fill="#222222">bulk</text></g><g><text text-anchor="end" x="401.85" y="259.63730669589467" font-family="Arial" font-size="12" transform="rotate(-30 401.85 259.63730669589467)" stroke="none" stroke-width="0" fill="#222222">ptr</text></g><g><text text-anchor="end" x="468.35" y="259.63730669589467" font-family="Arial" font-size="12" transform="rotate(-30 468.35 259.63730669589467)" stroke="none" stroke-width="0" fill="#222222">obj</text></g><g><text text-anchor="end" x="88" y="246.7" font-family="Arial" font-size="12" stroke="none" stroke-width="0" fill="#444444">0.0</text></g><g><text text-anchor="end" x="88" y="216.0333333333333" font-family="Arial" font-size="12" stroke="none" stroke-width="0" fill="#444444">0.2</text></g><g><text text-anchor="end" x="88" y="185.36666666666665" font-family="Arial" font-size="12" stroke="none" stroke-width="0" fill="#444444">0.4</text></g><g><text text-anchor="end" x="88" y="154.7" font-family="Arial" font-size="12" stroke="none" stroke-width="0" fill="#444444">0.6</text></g><g><text text-anchor="end" x="88" y="124.03333333333332" font-family="Arial" font-size="12" stroke="none" stroke-width="0" fill="#444444">0.8</text></g><g><text text-anchor="end" x="88" y="93.36666666666666" font-family="Arial" font-size="12" stroke="none" stroke-width="0" fill="#444444">1.0</text></g><g><text text-anchor="end" x="88" y="62.7" font-family="Arial" font-size="12" stroke="none" stroke-width="0" fill="#444444">1.2</text></g></g></g><g><g><text text-anchor="middle" x="39.7" y="150.5" font-family="Arial" font-size="12" font-style="italic" transform="rotate(-90 39.7 150.5)" stroke="none" stroke-width="0" fill="#222222">relative time</text></g></g><g></g></svg>
