<svg xmlns="http://www.w3.org/2000/svg" xlink="http://www.w3.org/1999/xlink" xmlns:ev="http://www.w3.org/2001/xml-events" width="600" height="300" aria-label="A chart." style="overflow: hidden;"><defs id="defs"><clipPath id="_ABSTRACT_RENDERER_ID_0"><rect x="100" y="58" width="400" height="185"></rect></clipPath></defs><g><text text-anchor="start" x="100" y="23.7" font-family="Arial" font-size="12" font-weight="bold" stroke="none" stroke-width="0" fill="#000000">GC Benchmark Comparison (Linux/64, Core i5-2400S)</text></g><g><rect x="365" y="33" width="135" height="12" stroke="none" stroke-width="0" fill-opacity="0" fill="#ffffff"></rect><g><rect x="365" y="33" width="58" height="12" stroke="none" stroke-width="0" fill-opacity="0" fill="#ffffff"></rect><g><text text-anchor="start" x="382" y="43.2" font-family="Arial" font-size="12" stroke="none" stroke-width="0" fill="#222222">2.066.1</text></g><rect x="365" y="33" width="12" height="12" stroke="none" stroke-width="0" fill="#3366cc"></rect></g><g><rect x="442" y="33" width="58" height="12" stroke="none" stroke-width="0" fill-opacity="0" fill="#ffffff"></rect><g><text text-anchor="start" x="459" y="43.2" font-family="Arial" font-size="12" stroke="none" stroke-width="0" fill="#222222">2.067.0</text></g><rect x="442" y="33" width="12" height="12" stroke="none" stroke-width="0" fill="#dc3912"></rect></g></g><g><rect x="100" y="58" width="400" height="185" stroke="none" stroke-width="0" fill-opacity="0" fill="#ffffff"></rect><g clip-path="url(#_ABSTRACT_RENDERER_ID_0)"><g><rect x="100" y="242" width="400" height="1" stroke="none" stroke-width="0" fill="#cccccc"></rect><rect x="100" y="196" width="400" height="1" stroke="none" stroke-width="0" fill="#cccccc"></rect><rect x="100" y="150" width="400" height="1" stroke="none" stroke-width="0" fill="#cccccc"></rect><rect x="100" y="104" width="400" height="1" stroke="none" stroke-width="0" fill="#cccccc"></rect><rect x="100" y="58" width="400" height="1" stroke="none" stroke-width="0" fill="#cccccc"></rect></g><g><rect x="109" y="146" width="13" height="96" stroke="none" stroke-width="0" fill="#3366cc"></rect><rect x="153" y="192" width="13" height="50" stroke="none" stroke-width="0" fill="#3366cc"></rect><rect x="197" y="120" width="13" height="122" stroke="none" stroke-width="0" fill="#3366cc"></rect><rect x="242" y="97" width="13" height="145" stroke="none" stroke-width="0" fill="#3366cc"></rect><rect x="286" y="188" width="13" height="54" stroke="none" stroke-width="0" fill="#3366cc"></rect><rect x="330" y="202" width="13" height="40" stroke="none" stroke-width="0" fill="#3366cc"></rect><rect x="375" y="151" width="13" height="91" stroke="none" stroke-width="0" fill="#3366cc"></rect><rect x="419" y="210" width="13" height="32" stroke="none" stroke-width="0" fill="#3366cc"></rect><rect x="463" y="150" width="13" height="92" stroke="none" stroke-width="0" fill="#3366cc"></rect><rect x="123" y="214" width="13" height="28" stroke="none" stroke-width="0" fill="#dc3912"></rect><rect x="167" y="187" width="13" height="55" stroke="none" stroke-width="0" fill="#dc3912"></rect><rect x="211" y="150" width="13" height="92" stroke="none" stroke-width="0" fill="#dc3912"></rect><rect x="256" y="146" width="13" height="96" stroke="none" stroke-width="0" fill="#dc3912"></rect><rect x="300" y="186" width="13" height="56" stroke="none" stroke-width="0" fill="#dc3912"></rect><rect x="344" y="228" width="13" height="14" stroke="none" stroke-width="0" fill="#dc3912"></rect><rect x="389" y="148" width="13" height="94" stroke="none" stroke-width="0" fill="#dc3912"></rect><rect x="433" y="215" width="13" height="27" stroke="none" stroke-width="0" fill="#dc3912"></rect><rect x="477" y="150" width="13" height="92" stroke="none" stroke-width="0" fill="#dc3912"></rect></g><g><rect x="100" y="242" width="400" height="1" stroke="none" stroke-width="0" fill="#333333"></rect></g></g><g></g><g><g><text text-anchor="end" x="124.76666666666667" y="259.63730669589467" font-family="Arial" font-size="12" transform="rotate(-30 124.76666666666667 259.63730669589467)" stroke="none" stroke-width="0" fill="#222222">tree1</text></g><g><text text-anchor="end" x="169.1" y="259.63730669589467" font-family="Arial" font-size="12" transform="rotate(-30 169.1 259.63730669589467)" stroke="none" stroke-width="0" fill="#222222">tree2</text></g><g><text text-anchor="end" x="213.43333333333334" y="259.63730669589467" font-family="Arial" font-size="12" transform="rotate(-30 213.43333333333334 259.63730669589467)" stroke="none" stroke-width="0" fill="#222222">vdparser</text></g><g><text text-anchor="end" x="257.7666666666667" y="259.63730669589467" font-family="Arial" font-size="12" transform="rotate(-30 257.7666666666667 259.63730669589467)" stroke="none" stroke-width="0" fill="#222222">testgc3</text></g><g><text text-anchor="end" x="302.1" y="259.63730669589467" font-family="Arial" font-size="12" transform="rotate(-30 302.1 259.63730669589467)" stroke="none" stroke-width="0" fill="#222222">words</text></g><g><text text-anchor="end" x="346.4333333333334" y="259.63730669589467" font-family="Arial" font-size="12" transform="rotate(-30 346.4333333333334 259.63730669589467)" stroke="none" stroke-width="0" fill="#222222">rand_large</text></g><g><text text-anchor="end" x="390.7666666666667" y="259.63730669589467" font-family="Arial" font-size="12" transform="rotate(-30 390.7666666666667 259.63730669589467)" stroke="none" stroke-width="0" fill="#222222">dlist</text></g><g><text text-anchor="end" x="435.1" y="259.63730669589467" font-family="Arial" font-size="12" transform="rotate(-30 435.1 259.63730669589467)" stroke="none" stroke-width="0" fill="#222222">rand_small</text></g><g><text text-anchor="end" x="479.4333333333334" y="259.63730669589467" font-family="Arial" font-size="12" transform="rotate(-30 479.4333333333334 259.63730669589467)" stroke="none" stroke-width="0" fill="#222222">slist</text></g><g><text text-anchor="end" x="88" y="246.7" font-family="Arial" font-size="12" stroke="none" stroke-width="0" fill="#444444">0</text></g><g><text text-anchor="end" x="88" y="200.7" font-family="Arial" font-size="12" stroke="none" stroke-width="0" fill="#444444">1</text></g><g><text text-anchor="end" x="88" y="154.7" font-family="Arial" font-size="12" stroke="none" stroke-width="0" fill="#444444">2</text></g><g><text text-anchor="end" x="88" y="108.7" font-family="Arial" font-size="12" stroke="none" stroke-width="0" fill="#444444">3</text></g><g><text text-anchor="end" x="88" y="62.7" font-family="Arial" font-size="12" stroke="none" stroke-width="0" fill="#444444">4</text></g></g></g><g><g><text text-anchor="middle" x="44.7" y="150.5" font-family="Arial" font-size="12" font-style="italic" transform="rotate(-90 44.7 150.5)" stroke="none" stroke-width="0" fill="#222222">time / s</text></g></g><g></g></svg>
