<?xml version="1.0" encoding="UTF-8" standalone="no"?>
<!DOCTYPE svg PUBLIC "-//W3C//DTD SVG 1.1//EN"
 "http://www.w3.org/Graphics/SVG/1.1/DTD/svg11.dtd">
<!-- Generated by graphviz version 2.38.0 (20140413.2041)
 -->
<!-- Title: Qualifer Combinations Pages: 1 -->
<svg width="408pt" height="305pt"
 viewBox="0.00 0.00 408.14 305.00" xmlns="http://www.w3.org/2000/svg" xmlns:xlink="http://www.w3.org/1999/xlink">
<g id="graph0" class="graph" transform="scale(1 1) rotate(0) translate(4 301)">
<title>Qualifer Combinations</title>
<polygon fill="white" stroke="none" points="-4,4 -4,-301 404.139,-301 404.139,4 -4,4"/>
<!-- T -->
<g id="node1" class="node"><title>T</title>
<ellipse fill="none" stroke="black" cx="208.394" cy="-279" rx="27" ry="18"/>
<text text-anchor="middle" x="208.394" y="-275.3" font-family="Times,serif" font-size="14.00">T</text>
</g>
<!-- const T -->
<g id="node2" class="node"><title>const T</title>
<ellipse fill="none" stroke="black" cx="111.394" cy="-192" rx="37.0935" ry="18"/>
<text text-anchor="middle" x="111.394" y="-188.3" font-family="Times,serif" font-size="14.00">const T</text>
</g>
<!-- T&#45;&gt;const T -->
<g id="edge1" class="edge"><title>T&#45;&gt;const T</title>
<path fill="none" stroke="black" d="M192.377,-263.964C177.165,-250.634 154.062,-230.389 136.42,-214.93"/>
<polygon fill="black" stroke="black" points="138.574,-212.164 128.747,-208.205 133.961,-217.428 138.574,-212.164"/>
<text text-anchor="middle" x="180.894" y="-231.8" font-family="Times,serif" font-size="14.00">const</text>
</g>
<!-- inout T -->
<g id="node3" class="node"><title>inout T</title>
<ellipse fill="none" stroke="black" cx="304.394" cy="-192" rx="36.2938" ry="18"/>
<text text-anchor="middle" x="304.394" y="-188.3" font-family="Times,serif" font-size="14.00">inout T</text>
</g>
<!-- T&#45;&gt;inout T -->
<g id="edge2" class="edge"><title>T&#45;&gt;inout T</title>
<path fill="none" stroke="black" d="M224.387,-264.071C231.718,-257.669 240.513,-249.967 248.394,-243 258.618,-233.964 269.845,-223.956 279.544,-215.284"/>
<polygon fill="black" stroke="black" points="282.16,-217.64 287.278,-208.363 277.492,-212.424 282.16,-217.64"/>
<text text-anchor="middle" x="278.394" y="-231.8" font-family="Times,serif" font-size="14.00">inout</text>
</g>
<!-- shared T -->
<g id="node4" class="node"><title>shared T</title>
<ellipse fill="none" stroke="black" cx="208.394" cy="-192" rx="41.6928" ry="18"/>
<text text-anchor="middle" x="208.394" y="-188.3" font-family="Times,serif" font-size="14.00">shared T</text>
</g>
<!-- T&#45;&gt;shared T -->
<g id="edge3" class="edge"><title>T&#45;&gt;shared T</title>
<path fill="none" stroke="black" d="M208.394,-260.799C208.394,-249.163 208.394,-233.548 208.394,-220.237"/>
<polygon fill="black" stroke="black" points="211.895,-220.175 208.394,-210.175 204.895,-220.175 211.895,-220.175"/>
<text text-anchor="middle" x="226.394" y="-231.8" font-family="Times,serif" font-size="14.00">shared</text>
</g>
<!-- const inout T -->
<g id="node5" class="node"><title>const inout T</title>
<ellipse fill="none" stroke="black" cx="200.394" cy="-105" rx="57.6901" ry="18"/>
<text text-anchor="middle" x="200.394" y="-101.3" font-family="Times,serif" font-size="14.00">const inout T</text>
</g>
<!-- const T&#45;&gt;const inout T -->
<g id="edge4" class="edge"><title>const T&#45;&gt;const inout T</title>
<path fill="none" stroke="black" d="M114.541,-174.045C117.234,-163.496 122.049,-150.23 130.394,-141 136.82,-133.894 145.016,-128.048 153.52,-123.306"/>
<polygon fill="black" stroke="black" points="155.116,-126.421 162.432,-118.757 151.934,-120.186 155.116,-126.421"/>
<text text-anchor="middle" x="144.394" y="-144.8" font-family="Times,serif" font-size="14.00">inout</text>
</g>
<!-- const shared T -->
<g id="node6" class="node"><title>const shared T</title>
<ellipse fill="none" stroke="black" cx="62.3945" cy="-105" rx="62.2891" ry="18"/>
<text text-anchor="middle" x="62.3945" y="-101.3" font-family="Times,serif" font-size="14.00">const shared T</text>
</g>
<!-- const T&#45;&gt;const shared T -->
<g id="edge5" class="edge"><title>const T&#45;&gt;const shared T</title>
<path fill="none" stroke="black" d="M88.5768,-177.577C80.9204,-171.903 73.1318,-164.6 68.3945,-156 64.6242,-149.156 62.7552,-140.996 61.9194,-133.274"/>
<polygon fill="black" stroke="black" points="65.4073,-132.962 61.3387,-123.179 58.4189,-133.364 65.4073,-132.962"/>
<text text-anchor="middle" x="86.3945" y="-144.8" font-family="Times,serif" font-size="14.00">shared</text>
</g>
<!-- inout T&#45;&gt;const inout T -->
<g id="edge6" class="edge"><title>inout T&#45;&gt;const inout T</title>
<path fill="none" stroke="black" d="M293.54,-174.79C285.954,-164.283 275.115,-150.783 263.394,-141 256.415,-135.175 248.323,-129.837 240.312,-125.179"/>
<polygon fill="black" stroke="black" points="241.808,-122.006 231.365,-120.219 238.414,-128.128 241.808,-122.006"/>
<text text-anchor="middle" x="293.894" y="-144.8" font-family="Times,serif" font-size="14.00">const</text>
</g>
<!-- inout shared T -->
<g id="node7" class="node"><title>inout shared T</title>
<ellipse fill="none" stroke="black" cx="338.394" cy="-105" rx="61.99" ry="18"/>
<text text-anchor="middle" x="338.394" y="-101.3" font-family="Times,serif" font-size="14.00">inout shared T</text>
</g>
<!-- inout T&#45;&gt;inout shared T -->
<g id="edge7" class="edge"><title>inout T&#45;&gt;inout shared T</title>
<path fill="none" stroke="black" d="M311.112,-174.207C315.877,-162.293 322.369,-146.063 327.825,-132.424"/>
<polygon fill="black" stroke="black" points="331.11,-133.634 331.575,-123.049 324.611,-131.034 331.11,-133.634"/>
<text text-anchor="middle" x="342.394" y="-144.8" font-family="Times,serif" font-size="14.00">shared</text>
</g>
<!-- shared T&#45;&gt;const shared T -->
<g id="edge8" class="edge"><title>shared T&#45;&gt;const shared T</title>
<path fill="none" stroke="black" d="M195.424,-174.728C186.093,-163.924 172.68,-150.106 158.394,-141 145.633,-132.865 130.715,-126.265 116.496,-121.08"/>
<polygon fill="black" stroke="black" points="117.393,-117.687 106.799,-117.716 115.099,-124.3 117.393,-117.687"/>
<text text-anchor="middle" x="191.894" y="-144.8" font-family="Times,serif" font-size="14.00">const</text>
</g>
<!-- shared T&#45;&gt;inout shared T -->
<g id="edge9" class="edge"><title>shared T&#45;&gt;inout shared T</title>
<path fill="none" stroke="black" d="M212.423,-174.04C215.808,-163.216 221.693,-149.645 231.394,-141 239.556,-133.727 261.017,-126.127 282.595,-119.874"/>
<polygon fill="black" stroke="black" points="283.788,-123.175 292.47,-117.103 281.897,-116.435 283.788,-123.175"/>
<text text-anchor="middle" x="245.394" y="-144.8" font-family="Times,serif" font-size="14.00">inout</text>
</g>
<!-- const inout shared T -->
<g id="node8" class="node"><title>const inout shared T</title>
<ellipse fill="none" stroke="black" cx="200.394" cy="-18" rx="83.3857" ry="18"/>
<text text-anchor="middle" x="200.394" y="-14.3" font-family="Times,serif" font-size="14.00">const inout shared T</text>
</g>
<!-- const inout T&#45;&gt;const inout shared T -->
<g id="edge10" class="edge"><title>const inout T&#45;&gt;const inout shared T</title>
<path fill="none" stroke="black" d="M200.394,-86.799C200.394,-75.1626 200.394,-59.5479 200.394,-46.2368"/>
<polygon fill="black" stroke="black" points="203.895,-46.1754 200.394,-36.1754 196.895,-46.1755 203.895,-46.1754"/>
<text text-anchor="middle" x="218.394" y="-57.8" font-family="Times,serif" font-size="14.00">shared</text>
</g>
<!-- const shared T&#45;&gt;const inout shared T -->
<g id="edge11" class="edge"><title>const shared T&#45;&gt;const inout shared T</title>
<path fill="none" stroke="black" d="M87.7058,-88.4097C109.466,-75.0065 141.075,-55.5375 165.281,-40.6277"/>
<polygon fill="black" stroke="black" points="167.154,-43.5851 173.833,-35.3605 163.483,-37.6249 167.154,-43.5851"/>
<text text-anchor="middle" x="154.394" y="-57.8" font-family="Times,serif" font-size="14.00">inout</text>
</g>
<!-- inout shared T&#45;&gt;const inout shared T -->
<g id="edge12" class="edge"><title>inout shared T&#45;&gt;const inout shared T</title>
<path fill="none" stroke="black" d="M313.083,-88.4097C291.323,-75.0065 259.714,-55.5375 235.508,-40.6277"/>
<polygon fill="black" stroke="black" points="237.306,-37.6249 226.956,-35.3605 233.635,-43.5851 237.306,-37.6249"/>
<text text-anchor="middle" x="292.894" y="-57.8" font-family="Times,serif" font-size="14.00">const</text>
</g>
</g>
</svg>
