<?xml version="1.0" encoding="UTF-8" standalone="no"?>
<!DOCTYPE svg PUBLIC "-//W3C//DTD SVG 1.1//EN"
 "http://www.w3.org/Graphics/SVG/1.1/DTD/svg11.dtd">
<!-- Generated by graphviz version 2.38.0 (20140413.2041)
 -->
<!-- Title: conversions Pages: 1 -->
<svg width="477pt" height="188pt"
 viewBox="0.00 0.00 477.44 188.00" xmlns="http://www.w3.org/2000/svg" xmlns:xlink="http://www.w3.org/1999/xlink">
<g id="graph0" class="graph" transform="scale(1 1) rotate(0) translate(4 184)">
<title>conversions</title>
<polygon fill="white" stroke="none" points="-4,4 -4,-184 473.443,-184 473.443,4 -4,4"/>
<!-- mutable -->
<g id="node1" class="node"><title>mutable</title>
<ellipse fill="none" stroke="black" cx="39.6465" cy="-90" rx="39.7935" ry="18"/>
<text text-anchor="middle" x="39.6465" y="-86.3" font-family="Times,serif" font-size="14.00">mutable</text>
</g>
<!-- const -->
<g id="node2" class="node"><title>const</title>
<ellipse fill="none" stroke="black" cx="93.6465" cy="-162" rx="29.4969" ry="18"/>
<text text-anchor="middle" x="93.6465" y="-158.3" font-family="Times,serif" font-size="14.00">const</text>
</g>
<!-- mutable&#45;&gt;const -->
<g id="edge1" class="edge"><title>mutable&#45;&gt;const</title>
<path fill="none" stroke="black" d="M52.1709,-107.235C59.0838,-116.196 67.794,-127.488 75.4457,-137.406"/>
<polygon fill="black" stroke="black" points="72.6821,-139.554 81.5614,-145.334 78.2246,-135.279 72.6821,-139.554"/>
</g>
<!-- const inout -->
<g id="node3" class="node"><title>const inout</title>
<ellipse fill="none" stroke="black" cx="147.646" cy="-90" rx="50.0912" ry="18"/>
<text text-anchor="middle" x="147.646" y="-86.3" font-family="Times,serif" font-size="14.00">const inout</text>
</g>
<!-- const inout&#45;&gt;const -->
<g id="edge2" class="edge"><title>const inout&#45;&gt;const</title>
<path fill="none" stroke="black" d="M134.849,-107.589C127.998,-116.47 119.442,-127.561 111.905,-137.332"/>
<polygon fill="black" stroke="black" points="108.949,-135.433 105.612,-145.489 114.491,-139.709 108.949,-135.433"/>
</g>
<!-- inout -->
<g id="node4" class="node"><title>inout</title>
<ellipse fill="none" stroke="black" cx="128.646" cy="-18" rx="28.6953" ry="18"/>
<text text-anchor="middle" x="128.646" y="-14.3" font-family="Times,serif" font-size="14.00">inout</text>
</g>
<!-- inout&#45;&gt;const inout -->
<g id="edge3" class="edge"><title>inout&#45;&gt;const inout</title>
<path fill="none" stroke="black" d="M133.246,-35.945C135.361,-43.7391 137.923,-53.1781 140.296,-61.9211"/>
<polygon fill="black" stroke="black" points="136.96,-62.9907 142.957,-71.7247 143.716,-61.157 136.96,-62.9907"/>
</g>
<!-- immutable -->
<g id="node5" class="node"><title>immutable</title>
<ellipse fill="none" stroke="black" cx="224.646" cy="-18" rx="49.2915" ry="18"/>
<text text-anchor="middle" x="224.646" y="-14.3" font-family="Times,serif" font-size="14.00">immutable</text>
</g>
<!-- immutable&#45;&gt;const inout -->
<g id="edge4" class="edge"><title>immutable&#45;&gt;const inout</title>
<path fill="none" stroke="black" d="M207.174,-34.8841C197.007,-44.1265 184.019,-55.9343 172.77,-66.1605"/>
<polygon fill="black" stroke="black" points="170.361,-63.6199 165.316,-72.9365 175.07,-68.7995 170.361,-63.6199"/>
</g>
<!-- const inout shared -->
<g id="node6" class="node"><title>const inout shared</title>
<ellipse fill="none" stroke="black" cx="308.646" cy="-90" rx="75.2868" ry="18"/>
<text text-anchor="middle" x="308.646" y="-86.3" font-family="Times,serif" font-size="14.00">const inout shared</text>
</g>
<!-- immutable&#45;&gt;const inout shared -->
<g id="edge5" class="edge"><title>immutable&#45;&gt;const inout shared</title>
<path fill="none" stroke="black" d="M243.707,-34.8841C254.746,-44.083 268.834,-55.8232 281.066,-66.016"/>
<polygon fill="black" stroke="black" points="278.862,-68.7353 288.785,-72.4484 283.343,-63.3577 278.862,-68.7353"/>
</g>
<!-- const shared -->
<g id="node9" class="node"><title>const shared</title>
<ellipse fill="none" stroke="black" cx="371.646" cy="-162" rx="54.6905" ry="18"/>
<text text-anchor="middle" x="371.646" y="-158.3" font-family="Times,serif" font-size="14.00">const shared</text>
</g>
<!-- const inout shared&#45;&gt;const shared -->
<g id="edge8" class="edge"><title>const inout shared&#45;&gt;const shared</title>
<path fill="none" stroke="black" d="M323.897,-107.945C331.635,-116.543 341.176,-127.143 349.689,-136.603"/>
<polygon fill="black" stroke="black" points="347.245,-139.119 356.536,-144.211 352.448,-134.437 347.245,-139.119"/>
</g>
<!-- inout shared -->
<g id="node7" class="node"><title>inout shared</title>
<ellipse fill="none" stroke="black" cx="345.646" cy="-18" rx="53.8905" ry="18"/>
<text text-anchor="middle" x="345.646" y="-14.3" font-family="Times,serif" font-size="14.00">inout shared</text>
</g>
<!-- inout shared&#45;&gt;const inout shared -->
<g id="edge6" class="edge"><title>inout shared&#45;&gt;const inout shared</title>
<path fill="none" stroke="black" d="M336.69,-35.945C332.436,-43.9933 327.255,-53.7954 322.509,-62.7741"/>
<polygon fill="black" stroke="black" points="319.357,-61.2481 317.778,-71.7247 325.545,-64.5193 319.357,-61.2481"/>
</g>
<!-- shared -->
<g id="node8" class="node"><title>shared</title>
<ellipse fill="none" stroke="black" cx="435.646" cy="-90" rx="33.5952" ry="18"/>
<text text-anchor="middle" x="435.646" y="-86.3" font-family="Times,serif" font-size="14.00">shared</text>
</g>
<!-- shared&#45;&gt;const shared -->
<g id="edge7" class="edge"><title>shared&#45;&gt;const shared</title>
<path fill="none" stroke="black" d="M421.443,-106.535C413.226,-115.522 402.714,-127.02 393.467,-137.133"/>
<polygon fill="black" stroke="black" points="390.867,-134.791 386.702,-144.533 396.033,-139.514 390.867,-134.791"/>
</g>
</g>
</svg>
