<?xml version="1.0" encoding="UTF-8" standalone="no"?>
<!DOCTYPE svg PUBLIC "-//W3C//DTD SVG 1.1//EN"
 "http://www.w3.org/Graphics/SVG/1.1/DTD/svg11.dtd">
<!-- Generated by graphviz version 2.43.0 (0)
 -->
<!-- Title: Statement Pages: 1 -->
<svg width="390pt" height="152pt"
 viewBox="0.00 0.00 389.77 152.00" xmlns="http://www.w3.org/2000/svg" xmlns:xlink="http://www.w3.org/1999/xlink">
<g id="graph0" class="graph" transform="scale(1 1) rotate(0) translate(4 148)">
<title>Statement</title>
<polygon fill="white" stroke="transparent" points="-4,4 -4,-148 385.77,-148 385.77,4 -4,4"/>
<!-- Statement -->
<g id="node1" class="node">
<title>Statement</title>
<ellipse fill="none" stroke="black" cx="59.79" cy="-72" rx="59.59" ry="18"/>
<text text-anchor="middle" x="59.79" y="-68.3" font-family="Times,serif" font-size="14.00">Statement</text>
</g>
<!-- BlockStatement -->
<g id="node2" class="node">
<title>BlockStatement</title>
<ellipse fill="none" stroke="black" cx="268.68" cy="-126" rx="85.29" ry="18"/>
<text text-anchor="middle" x="268.68" y="-122.3" font-family="Times,serif" font-size="14.00">BlockStatement</text>
</g>
<!-- Statement&#45;&gt;BlockStatement -->
<g id="edge1" class="edge">
<title>Statement&#45;&gt;BlockStatement</title>
<path fill="none" stroke="black" d="M103.16,-84.47C119.5,-89.17 138.38,-94.48 155.59,-99 170.14,-102.82 185.81,-106.73 200.68,-110.34"/>
<polygon fill="black" stroke="black" points="200.29,-113.84 210.83,-112.79 201.93,-107.04 200.29,-113.84"/>
</g>
<!-- DeclarationStatement -->
<g id="node3" class="node">
<title>DeclarationStatement</title>
<ellipse fill="none" stroke="black" cx="268.68" cy="-72" rx="113.18" ry="18"/>
<text text-anchor="middle" x="268.68" y="-68.3" font-family="Times,serif" font-size="14.00">DeclarationStatement</text>
</g>
<!-- Statement&#45;&gt;DeclarationStatement -->
<g id="edge2" class="edge">
<title>Statement&#45;&gt;DeclarationStatement</title>
<path fill="none" stroke="black" d="M119.8,-72C127.96,-72 136.57,-72 145.37,-72"/>
<polygon fill="black" stroke="black" points="145.37,-75.5 155.37,-72 145.37,-68.5 145.37,-75.5"/>
</g>
<!-- ExpressionStatement -->
<g id="node4" class="node">
<title>ExpressionStatement</title>
<ellipse fill="none" stroke="black" cx="268.68" cy="-18" rx="111.28" ry="18"/>
<text text-anchor="middle" x="268.68" y="-14.3" font-family="Times,serif" font-size="14.00">ExpressionStatement</text>
</g>
<!-- Statement&#45;&gt;ExpressionStatement -->
<g id="edge3" class="edge">
<title>Statement&#45;&gt;ExpressionStatement</title>
<path fill="none" stroke="black" d="M103.16,-59.53C119.5,-54.83 138.38,-49.52 155.59,-45 168.16,-41.7 181.57,-38.33 194.58,-35.15"/>
<polygon fill="black" stroke="black" points="195.54,-38.52 204.43,-32.75 193.89,-31.72 195.54,-38.52"/>
</g>
</g>
</svg>
